<svg width="248" height="160" viewBox="0 0 248 160" fill="none" xmlns="http://www.w3.org/2000/svg">
<path d="M0 8C0 3.58172 3.58172 0 8 0H240C244.418 0 248 3.58172 248 8V152C248 156.418 244.418 160 240 160H8.00001C3.58173 160 0 156.418 0 152V8Z" fill="white"/>
<path d="M40 24C40 21.7909 41.7909 20 44 20H52C54.2091 20 56 21.7909 56 24C56 26.2091 54.2091 28 52 28H44C41.7909 28 40 26.2091 40 24Z" fill="#F65855"/>
<path d="M64 24C64 21.7909 65.7909 20 68 20C70.2091 20 72 21.7909 72 24C72 26.2091 70.2091 28 68 28C65.7909 28 64 26.2091 64 24Z" fill="#2083DF"/>
<path d="M64 52C64 49.7909 65.7909 48 68 48C70.2091 48 72 49.7909 72 52C72 54.2091 70.2091 56 68 56C65.7909 56 64 54.2091 64 52Z" fill="#2083DF"/>
<path d="M64 80C64 77.7909 65.7909 76 68 76C70.2091 76 72 77.7909 72 80C72 82.2091 70.2091 84 68 84C65.7909 84 64 82.2091 64 80Z" fill="#2083DF"/>
<path d="M64 108C64 105.791 65.7909 104 68 104C70.2091 104 72 105.791 72 108C72 110.209 70.2091 112 68 112C65.7909 112 64 110.209 64 108Z" fill="#2083DF"/>
<path d="M64 136C64 133.791 65.7909 132 68 132C70.2091 132 72 133.791 72 136C72 138.209 70.2091 140 68 140C65.7909 140 64 138.209 64 136Z" fill="#2083DF"/>
<path d="M40 52C40 49.7909 41.7909 48 44 48H52C54.2091 48 56 49.7909 56 52C56 54.2091 54.2091 56 52 56H44C41.7909 56 40 54.2091 40 52Z" fill="#F6AB55"/>
<path d="M40 108C40 105.791 41.7909 104 44 104H52C54.2091 104 56 105.791 56 108C56 110.209 54.2091 112 52 112H44C41.7909 112 40 110.209 40 108Z" fill="#F6AB55"/>
<path d="M40 80C40 77.7909 41.7909 76 44 76H52C54.2091 76 56 77.7909 56 80C56 82.2091 54.2091 84 52 84H44C41.7909 84 40 82.2091 40 80Z" fill="#169C18"/>
<path d="M80 24C80 21.7909 81.7909 20 84 20H200C202.209 20 204 21.7909 204 24C204 26.2091 202.209 28 200 28H84C81.7909 28 80 26.2091 80 24Z" fill="#F9F9FB"/>
<path d="M40 136C40 133.791 41.7909 132 44 132H52C54.2091 132 56 133.791 56 136C56 138.209 54.2091 140 52 140H44C41.7909 140 40 138.209 40 136Z" fill="#169C18"/>
<path d="M80 52C80 49.7909 81.7909 48 84 48H200C202.209 48 204 49.7909 204 52C204 54.2091 202.209 56 200 56H84C81.7909 56 80 54.2091 80 52Z" fill="#F9F9FB"/>
<path d="M80 80C80 77.7909 81.7909 76 84 76H200C202.209 76 204 77.7909 204 80C204 82.2091 202.209 84 200 84H84C81.7909 84 80 82.2091 80 80Z" fill="#F9F9FB"/>
<path d="M80 108C80 105.791 81.7909 104 84 104H200C202.209 104 204 105.791 204 108C204 110.209 202.209 112 200 112H84C81.7909 112 80 110.209 80 108Z" fill="#F9F9FB"/>
<path d="M80 136C80 133.791 81.7909 132 84 132H200C202.209 132 204 133.791 204 136C204 138.209 202.209 140 200 140H84C81.7909 140 80 138.209 80 136Z" fill="#F9F9FB"/>
<path fill-rule="evenodd" clip-rule="evenodd" d="M17.3333 19.3333C17.3333 18.2288 18.2287 17.3333 19.3333 17.3333H22.4502C22.6652 17.3333 22.8787 17.368 23.0827 17.436L24.6721 17.9658C24.7401 17.9885 24.8113 18 24.883 18H28.6666C29.7712 18 30.6666 18.8954 30.6666 20V28.6667C30.6666 29.7712 29.7712 30.6667 28.6666 30.6667H19.3333C18.2287 30.6667 17.3333 29.7712 17.3333 28.6667V19.3333ZM29.3333 20V23.4471C29.1247 23.3734 28.9003 23.3333 28.6666 23.3333V22C28.6666 21.2636 28.0696 20.6667 27.3333 20.6667H20.6666C19.9302 20.6667 19.3333 21.2636 19.3333 22V23.3333C19.0995 23.3333 18.8751 23.3734 18.6666 23.4471V19.3333C18.6666 18.9651 18.9651 18.6667 19.3333 18.6667H22.4502C22.5219 18.6667 22.5931 18.6782 22.661 18.7009L24.2505 19.2307C24.4544 19.2987 24.668 19.3333 24.883 19.3333H28.6666C29.0348 19.3333 29.3333 19.6318 29.3333 20ZM19.3333 24.6667C18.9651 24.6667 18.6666 24.9651 18.6666 25.3333V28.6667C18.6666 29.0349 18.9651 29.3333 19.3333 29.3333H28.6666C29.0348 29.3333 29.3333 29.0349 29.3333 28.6667V25.3333C29.3333 24.9651 29.0348 24.6667 28.6666 24.6667H19.3333ZM27.3333 23.3333H20.6666V22H27.3333L27.3333 23.3333Z" fill="#F65855"/>
<path fill-rule="evenodd" clip-rule="evenodd" d="M17.3333 47.3333C17.3333 46.2288 18.2287 45.3333 19.3333 45.3333H22.4502C22.6652 45.3333 22.8787 45.368 23.0827 45.436L24.6721 45.9658C24.7401 45.9885 24.8113 46 24.883 46H28.6666C29.7712 46 30.6666 46.8954 30.6666 48V56.6667C30.6666 57.7712 29.7712 58.6667 28.6666 58.6667H19.3333C18.2287 58.6667 17.3333 57.7712 17.3333 56.6667V47.3333ZM29.3333 48V51.4471C29.1247 51.3734 28.9003 51.3333 28.6666 51.3333V50C28.6666 49.2636 28.0696 48.6667 27.3333 48.6667H20.6666C19.9302 48.6667 19.3333 49.2636 19.3333 50V51.3333C19.0995 51.3333 18.8751 51.3734 18.6666 51.4471V47.3333C18.6666 46.9651 18.9651 46.6667 19.3333 46.6667H22.4502C22.5219 46.6667 22.5931 46.6782 22.661 46.7009L24.2505 47.2307C24.4544 47.2987 24.668 47.3333 24.883 47.3333H28.6666C29.0348 47.3333 29.3333 47.6318 29.3333 48ZM19.3333 52.6667C18.9651 52.6667 18.6666 52.9651 18.6666 53.3333V56.6667C18.6666 57.0349 18.9651 57.3333 19.3333 57.3333H28.6666C29.0348 57.3333 29.3333 57.0349 29.3333 56.6667V53.3333C29.3333 52.9651 29.0348 52.6667 28.6666 52.6667H19.3333ZM27.3333 51.3333H20.6666V50H27.3333L27.3333 51.3333Z" fill="#F6AB55"/>
<path fill-rule="evenodd" clip-rule="evenodd" d="M17.3333 75.3333C17.3333 74.2288 18.2287 73.3333 19.3333 73.3333H22.4502C22.6652 73.3333 22.8787 73.368 23.0827 73.436L24.6721 73.9658C24.7401 73.9884 24.8113 74 24.883 74H28.6666C29.7712 74 30.6666 74.8954 30.6666 76V84.6667C30.6666 85.7712 29.7712 86.6667 28.6666 86.6667H19.3333C18.2287 86.6667 17.3333 85.7712 17.3333 84.6667V75.3333ZM29.3333 76V79.4471C29.1247 79.3734 28.9003 79.3333 28.6666 79.3333V78C28.6666 77.2636 28.0696 76.6667 27.3333 76.6667H20.6666C19.9302 76.6667 19.3333 77.2636 19.3333 78V79.3333C19.0995 79.3333 18.8751 79.3734 18.6666 79.4471V75.3333C18.6666 74.9651 18.9651 74.6667 19.3333 74.6667H22.4502C22.5219 74.6667 22.5931 74.6782 22.661 74.7009L24.2505 75.2307C24.4544 75.2987 24.668 75.3333 24.883 75.3333H28.6666C29.0348 75.3333 29.3333 75.6318 29.3333 76ZM19.3333 80.6667C18.9651 80.6667 18.6666 80.9651 18.6666 81.3333V84.6667C18.6666 85.0349 18.9651 85.3333 19.3333 85.3333H28.6666C29.0348 85.3333 29.3333 85.0349 29.3333 84.6667V81.3333C29.3333 80.9651 29.0348 80.6667 28.6666 80.6667H19.3333ZM27.3333 79.3333H20.6666V78H27.3333L27.3333 79.3333Z" fill="#169C18"/>
<rect x="224" y="20" width="8" height="8" rx="2" fill="#D4D8E2"/>
<rect x="212" y="20" width="8" height="8" rx="2" fill="#D4D8E2"/>
<path fill-rule="evenodd" clip-rule="evenodd" d="M17.3333 103.333C17.3333 102.229 18.2287 101.333 19.3333 101.333H22.4502C22.6652 101.333 22.8787 101.368 23.0827 101.436L24.6721 101.966C24.7401 101.988 24.8113 102 24.883 102H28.6666C29.7712 102 30.6666 102.895 30.6666 104V112.667C30.6666 113.771 29.7712 114.667 28.6666 114.667H19.3333C18.2287 114.667 17.3333 113.771 17.3333 112.667V103.333ZM29.3333 104V107.447C29.1247 107.373 28.9003 107.333 28.6666 107.333V106C28.6666 105.264 28.0696 104.667 27.3333 104.667H20.6666C19.9302 104.667 19.3333 105.264 19.3333 106V107.333C19.0995 107.333 18.8751 107.373 18.6666 107.447V103.333C18.6666 102.965 18.9651 102.667 19.3333 102.667H22.4502C22.5219 102.667 22.5931 102.678 22.661 102.701L24.2505 103.231C24.4544 103.299 24.668 103.333 24.883 103.333H28.6666C29.0348 103.333 29.3333 103.632 29.3333 104ZM19.3333 108.667C18.9651 108.667 18.6666 108.965 18.6666 109.333V112.667C18.6666 113.035 18.9651 113.333 19.3333 113.333H28.6666C29.0348 113.333 29.3333 113.035 29.3333 112.667V109.333C29.3333 108.965 29.0348 108.667 28.6666 108.667H19.3333ZM27.3333 107.333H20.6666V106H27.3333L27.3333 107.333Z" fill="#F6AB55"/>
<path fill-rule="evenodd" clip-rule="evenodd" d="M17.3333 131.333C17.3333 130.229 18.2287 129.333 19.3333 129.333H22.4502C22.6652 129.333 22.8787 129.368 23.0827 129.436L24.6721 129.966C24.7401 129.988 24.8113 130 24.883 130H28.6666C29.7712 130 30.6666 130.895 30.6666 132V140.667C30.6666 141.771 29.7712 142.667 28.6666 142.667H19.3333C18.2287 142.667 17.3333 141.771 17.3333 140.667V131.333ZM29.3333 132V135.447C29.1247 135.373 28.9003 135.333 28.6666 135.333V134C28.6666 133.264 28.0696 132.667 27.3333 132.667H20.6666C19.9302 132.667 19.3333 133.264 19.3333 134V135.333C19.0995 135.333 18.8751 135.373 18.6666 135.447V131.333C18.6666 130.965 18.9651 130.667 19.3333 130.667H22.4502C22.5219 130.667 22.5931 130.678 22.661 130.701L24.2505 131.231C24.4544 131.299 24.668 131.333 24.883 131.333H28.6666C29.0348 131.333 29.3333 131.632 29.3333 132ZM19.3333 136.667C18.9651 136.667 18.6666 136.965 18.6666 137.333V140.667C18.6666 141.035 18.9651 141.333 19.3333 141.333H28.6666C29.0348 141.333 29.3333 141.035 29.3333 140.667V137.333C29.3333 136.965 29.0348 136.667 28.6666 136.667H19.3333ZM27.3333 135.333H20.6666V134H27.3333L27.3333 135.333Z" fill="#169C18"/>
<rect x="224" y="48" width="8" height="8" rx="2" fill="#D4D8E2"/>
<rect x="224" y="76" width="8" height="8" rx="2" fill="#D4D8E2"/>
<rect x="224" y="104" width="8" height="8" rx="2" fill="#D4D8E2"/>
<rect x="224" y="132" width="8" height="8" rx="2" fill="#D4D8E2"/>
<rect x="212" y="48" width="8" height="8" rx="2" fill="#D4D8E2"/>
<rect x="212" y="76" width="8" height="8" rx="2" fill="#D4D8E2"/>
<rect x="212" y="104" width="8" height="8" rx="2" fill="#D4D8E2"/>
<rect x="212" y="132" width="8" height="8" rx="2" fill="#D4D8E2"/>
</svg>
