<svg width="248" height="160" viewBox="0 0 248 160" fill="none" xmlns="http://www.w3.org/2000/svg">
    <path d="M0 8C0 3.58172 3.58172 0 8 0H240C244.418 0 248 3.58172 248 8V152C248 156.418 244.418 160 240 160H8.00001C3.58173 160 0 156.418 0 152V8Z" fill="white"/>
    <path d="M40 24C40 21.7909 41.7909 20 44 20H52C54.2091 20 56 21.7909 56 24C56 26.2091 54.2091 28 52 28H44C41.7909 28 40 26.2091 40 24Z" fill="#F9F9FB"/>
    <path d="M88 24C88 21.7909 89.7909 20 92 20H100C102.209 20 104 21.7909 104 24C104 26.2091 102.209 28 100 28H92C89.7909 28 88 26.2091 88 24Z" fill="#F9F9FB"/>
    <path d="M136 24C136 21.7909 137.791 20 140 20H200C202.209 20 204 21.7909 204 24C204 26.2091 202.209 28 200 28H140C137.791 28 136 26.2091 136 24Z" fill="#F9F9FB"/>
    <path d="M136 52C136 49.7909 137.791 48 140 48H200C202.209 48 204 49.7909 204 52C204 54.2091 202.209 56 200 56H140C137.791 56 136 54.2091 136 52Z" fill="#F9F9FB"/>
    <path d="M136 80C136 77.7909 137.791 76 140 76H200C202.209 76 204 77.7909 204 80C204 82.2091 202.209 84 200 84H140C137.791 84 136 82.2091 136 80Z" fill="#F9F9FB"/>
    <path d="M136 108C136 105.791 137.791 104 140 104H200C202.209 104 204 105.791 204 108C204 110.209 202.209 112 200 112H140C137.791 112 136 110.209 136 108Z" fill="#F9F9FB"/>
    <path d="M136 136C136 133.791 137.791 132 140 132H200C202.209 132 204 133.791 204 136C204 138.209 202.209 140 200 140H140C137.791 140 136 138.209 136 136Z" fill="#F9F9FB"/>
    <path d="M64 24C64 21.7909 65.7909 20 68 20H76C78.2091 20 80 21.7909 80 24C80 26.2091 78.2091 28 76 28H68C65.7909 28 64 26.2091 64 24Z" fill="#FCEFCF"/>
    <path d="M112 24C112 21.7909 113.791 20 116 20H124C126.209 20 128 21.7909 128 24C128 26.2091 126.209 28 124 28H116C113.791 28 112 26.2091 112 24Z" fill="#FCEFCF"/>
    <path d="M64 52C64 49.7909 65.7909 48 68 48H76C78.2091 48 80 49.7909 80 52C80 54.2091 78.2091 56 76 56H68C65.7909 56 64 54.2091 64 52Z" fill="#FCEFCF"/>
    <path d="M112 52C112 49.7909 113.791 48 116 48H124C126.209 48 128 49.7909 128 52C128 54.2091 126.209 56 124 56H116C113.791 56 112 54.2091 112 52Z" fill="#FCEFCF"/>
    <path d="M64 80C64 77.7909 65.7909 76 68 76H76C78.2091 76 80 77.7909 80 80C80 82.2091 78.2091 84 76 84H68C65.7909 84 64 82.2091 64 80Z" fill="#FCEFCF"/>
    <path d="M112 80C112 77.7909 113.791 76 116 76H124C126.209 76 128 77.7909 128 80C128 82.2091 126.209 84 124 84H116C113.791 84 112 82.2091 112 80Z" fill="#FCEFCF"/>
    <path d="M64 108C64 105.791 65.7909 104 68 104H76C78.2091 104 80 105.791 80 108C80 110.209 78.2091 112 76 112H68C65.7909 112 64 110.209 64 108Z" fill="#FCEFCF"/>
    <path d="M112 108C112 105.791 113.791 104 116 104H124C126.209 104 128 105.791 128 108C128 110.209 126.209 112 124 112H116C113.791 112 112 110.209 112 108Z" fill="#FCEFCF"/>
    <path d="M64 136C64 133.791 65.7909 132 68 132H76C78.2091 132 80 133.791 80 136C80 138.209 78.2091 140 76 140H68C65.7909 140 64 138.209 64 136Z" fill="#FCEFCF"/>
    <path d="M112 136C112 133.791 113.791 132 116 132H124C126.209 132 128 133.791 128 136C128 138.209 126.209 140 124 140H116C113.791 140 112 138.209 112 136Z" fill="#FCEFCF"/>
    <path d="M40 52C40 49.7909 41.7909 48 44 48H52C54.2091 48 56 49.7909 56 52C56 54.2091 54.2091 56 52 56H44C41.7909 56 40 54.2091 40 52Z" fill="#F9F9FB"/>
    <path d="M88 52C88 49.7909 89.7909 48 92 48H100C102.209 48 104 49.7909 104 52C104 54.2091 102.209 56 100 56H92C89.7909 56 88 54.2091 88 52Z" fill="#F9F9FB"/>
    <path d="M40 80C40 77.7909 41.7909 76 44 76H52C54.2091 76 56 77.7909 56 80C56 82.2091 54.2091 84 52 84H44C41.7909 84 40 82.2091 40 80Z" fill="#F9F9FB"/>
    <path d="M88 80C88 77.7909 89.7909 76 92 76H100C102.209 76 104 77.7909 104 80C104 82.2091 102.209 84 100 84H92C89.7909 84 88 82.2091 88 80Z" fill="#F9F9FB"/>
    <path d="M40 108C40 105.791 41.7909 104 44 104H52C54.2091 104 56 105.791 56 108C56 110.209 54.2091 112 52 112H44C41.7909 112 40 110.209 40 108Z" fill="#F9F9FB"/>
    <path d="M88 108C88 105.791 89.7909 104 92 104H100C102.209 104 104 105.791 104 108C104 110.209 102.209 112 100 112H92C89.7909 112 88 110.209 88 108Z" fill="#F9F9FB"/>
    <path d="M40 136C40 133.791 41.7909 132 44 132H52C54.2091 132 56 133.791 56 136C56 138.209 54.2091 140 52 140H44C41.7909 140 40 138.209 40 136Z" fill="#F9F9FB"/>
    <path d="M88 136C88 133.791 89.7909 132 92 132H100C102.209 132 104 133.791 104 136C104 138.209 102.209 140 100 140H92C89.7909 140 88 138.209 88 136Z" fill="#F9F9FB"/>
    <rect x="224" y="20" width="8" height="8" rx="2" fill="#D4D8E2"/>
    <rect x="212" y="20" width="8" height="8" rx="2" fill="#D4D8E2"/>
    <rect x="224" y="48" width="8" height="8" rx="2" fill="#D4D8E2"/>
    <rect x="224" y="76" width="8" height="8" rx="2" fill="#D4D8E2"/>
    <rect x="224" y="104" width="8" height="8" rx="2" fill="#D4D8E2"/>
    <rect x="224" y="132" width="8" height="8" rx="2" fill="#D4D8E2"/>
    <rect x="212" y="48" width="8" height="8" rx="2" fill="#D4D8E2"/>
    <rect x="212" y="76" width="8" height="8" rx="2" fill="#D4D8E2"/>
    <rect x="212" y="104" width="8" height="8" rx="2" fill="#D4D8E2"/>
    <rect x="212" y="132" width="8" height="8" rx="2" fill="#D4D8E2"/>
    <path fill-rule="evenodd" clip-rule="evenodd" d="M23.9997 17.3333C23.5335 17.3333 23.0865 17.5185 22.7569 17.8481C22.4273 18.1777 22.2421 18.6248 22.2421 19.0909V19.1818C22.2418 19.2271 22.2283 19.2712 22.2033 19.3089C22.1902 19.3286 22.1743 19.3462 22.1561 19.361C22.12 19.3701 22.0847 19.3823 22.0505 19.3974C22.0078 19.4162 21.9605 19.4218 21.9147 19.4135C21.8696 19.4053 21.828 19.3841 21.7949 19.3524L21.7659 19.3234C21.6027 19.16 21.4088 19.0304 21.1954 18.9419C20.9821 18.8535 20.7534 18.8079 20.5224 18.8079C20.2914 18.8079 20.0627 18.8535 19.8494 18.9419C19.6361 19.0303 19.4424 19.1599 19.2792 19.3231C19.1159 19.4863 18.9863 19.6801 18.8979 19.8933C18.8095 20.1067 18.764 20.3354 18.764 20.5664C18.764 20.7973 18.8095 21.026 18.8979 21.2394C18.9864 21.4528 19.116 21.6466 19.2794 21.8099L19.3085 21.8389C19.3401 21.8719 19.3614 21.9136 19.3695 21.9586C19.3778 22.0045 19.3722 22.0518 19.3534 22.0945C19.3477 22.1073 19.3425 22.1203 19.3376 22.1335C19.3215 22.1775 19.2925 22.2155 19.2544 22.2428C19.2177 22.269 19.1743 22.284 19.1293 22.2861H19.0906C18.6244 22.2861 18.1774 22.4712 17.8478 22.8008C17.5182 23.1305 17.333 23.5775 17.333 24.0436C17.333 24.5098 17.5182 24.9568 17.8478 25.2864C18.1774 25.616 18.6244 25.8012 19.0906 25.8012H19.1816C19.2268 25.8016 19.2709 25.815 19.3086 25.84C19.3465 25.8651 19.3762 25.9008 19.3942 25.9426L19.397 25.9492C19.4159 25.9918 19.4215 26.0391 19.4132 26.085C19.405 26.1301 19.3837 26.1717 19.3521 26.2048L19.3228 26.2341C19.1595 26.3972 19.03 26.591 18.9416 26.8042C18.8531 27.0176 18.8076 27.2463 18.8076 27.4773C18.8076 27.7082 18.8531 27.937 18.9416 28.1503C19.0299 28.3635 19.1594 28.5571 19.3226 28.7202C19.4858 28.8837 19.6796 29.0133 19.893 29.1017C20.1064 29.1902 20.3351 29.2357 20.566 29.2357C20.797 29.2357 21.0257 29.1902 21.2391 29.1017C21.4523 29.0133 21.6463 28.8835 21.8095 28.7202L21.8385 28.6912C21.8716 28.6596 21.9132 28.6383 21.9583 28.6302C22.0042 28.6218 22.0515 28.6275 22.0941 28.6463C22.107 28.6519 22.12 28.6572 22.1332 28.6621C22.1771 28.6782 22.2152 28.7072 22.2424 28.7453C22.2687 28.782 22.2837 28.8254 22.2857 28.8703V28.9091C22.2857 29.3752 22.4709 29.8223 22.8005 30.1519C23.1198 30.4712 23.5493 30.655 23.9997 30.6661C24.45 30.655 24.8795 30.4712 25.1988 30.1519C25.5284 29.8223 25.7136 29.3752 25.7136 28.9091V28.8703C25.7157 28.8254 25.7307 28.782 25.7569 28.7453C25.7842 28.7072 25.8222 28.6782 25.8662 28.6621C25.8793 28.6572 25.8924 28.6519 25.9052 28.6463C25.9479 28.6275 25.9952 28.6218 26.0411 28.6302C26.0861 28.6383 26.1278 28.6596 26.1608 28.6912L26.1898 28.7202C26.353 28.8835 26.547 29.0133 26.7603 29.1017C26.9736 29.1902 27.2023 29.2357 27.4333 29.2357C27.6643 29.2357 27.893 29.1902 28.1064 29.1017C28.3197 29.0133 28.5136 28.8837 28.6768 28.7202C28.84 28.5571 28.9694 28.3635 29.0578 28.1503C29.1462 27.937 29.1917 27.7082 29.1917 27.4773C29.1917 27.2463 29.1462 27.0176 29.0578 26.8042C28.9694 26.591 28.8398 26.3972 28.6765 26.2341L28.6472 26.2048C28.6156 26.1717 28.5944 26.1301 28.5862 26.085C28.5779 26.0391 28.5835 25.9918 28.6023 25.9492L28.6052 25.9426C28.6231 25.9008 28.6529 25.8651 28.6908 25.84C28.7285 25.815 28.7726 25.8016 28.8177 25.8012H28.9088C29.3749 25.8012 29.822 25.616 30.1516 25.2864C30.4812 24.9568 30.6663 24.5098 30.6663 24.0436C30.6663 23.5775 30.4812 23.1305 30.1516 22.8008C29.822 22.4712 29.3749 22.2861 28.9088 22.2861H28.87C28.8251 22.284 28.7816 22.269 28.745 22.2428C28.7069 22.2155 28.6779 22.1775 28.6617 22.1335C28.6569 22.1203 28.6516 22.1073 28.6459 22.0945C28.6271 22.0518 28.6215 22.0045 28.6298 21.9586C28.638 21.9136 28.6592 21.8719 28.6909 21.8389L28.7199 21.8099C28.8833 21.6466 29.013 21.4528 29.1014 21.2394C29.1899 21.026 29.2354 20.7973 29.2354 20.5664C29.2354 20.3354 29.1899 20.1067 29.1014 19.8933C29.013 19.6801 28.8835 19.4863 28.7202 19.3231C28.557 19.1599 28.3632 19.0303 28.15 18.9419C27.9366 18.8535 27.7079 18.8079 27.4769 18.8079C27.246 18.8079 27.0173 18.8535 26.8039 18.9419C26.5905 19.0304 26.3967 19.16 26.2335 19.3234L26.2044 19.3524C26.1714 19.3841 26.1298 19.4053 26.0847 19.4135C26.0388 19.4218 25.9915 19.4162 25.9489 19.3974C25.9146 19.3823 25.8793 19.3701 25.8432 19.361C25.8251 19.3462 25.8091 19.3286 25.796 19.3089C25.7711 19.2712 25.7576 19.2271 25.7573 19.1818V19.0909C25.7573 18.6248 25.5721 18.1777 25.2425 17.8481C24.9129 17.5185 24.4658 17.3333 23.9997 17.3333ZM24.256 29.2091C24.1868 29.2783 24.0962 29.3211 23.9997 29.3311C23.9032 29.3211 23.8125 29.2783 23.7433 29.2091C23.6638 29.1295 23.6191 29.0216 23.6191 28.9091V28.86L23.6189 28.8444C23.6115 28.5301 23.5098 28.2253 23.3269 27.9696C23.1481 27.7197 22.8999 27.5279 22.6131 27.4181C22.3318 27.2984 22.0215 27.2636 21.7204 27.3182C21.4124 27.3741 21.1282 27.5209 20.9044 27.7398L20.8662 27.778C20.8268 27.8174 20.78 27.8487 20.7285 27.87C20.677 27.8914 20.6218 27.9024 20.566 27.9024C20.5103 27.9024 20.4551 27.8914 20.4036 27.87C20.3521 27.8487 20.3053 27.8174 20.2659 27.778L20.2654 27.7774C20.2259 27.738 20.1946 27.6912 20.1733 27.6397C20.1519 27.5882 20.1409 27.533 20.1409 27.4773C20.1409 27.4215 20.1519 27.3663 20.1733 27.3148C20.1946 27.2633 20.2262 27.2163 20.2656 27.1769L20.2984 27.1442L20.3035 27.1389C20.5224 26.9151 20.6693 26.6309 20.7251 26.3229C20.7807 26.0161 20.7435 25.6996 20.6183 25.4141C20.4978 25.1347 20.2985 24.8964 20.0448 24.7283C19.79 24.5596 19.4915 24.4691 19.186 24.4679H19.0906C18.9781 24.4679 18.8702 24.4232 18.7906 24.3436C18.711 24.2641 18.6663 24.1562 18.6663 24.0436C18.6663 23.9311 18.711 23.8232 18.7906 23.7437C18.8702 23.6641 18.9781 23.6194 19.0906 23.6194H19.1397L19.1553 23.6192C19.4695 23.6119 19.7743 23.5101 20.03 23.3273C20.28 23.1485 20.4718 22.9002 20.5816 22.6135C20.7013 22.3322 20.7361 22.0218 20.6815 21.7207C20.6256 21.4127 20.4788 21.1285 20.2599 20.9047L20.2217 20.8665C20.1823 20.8271 20.151 20.7803 20.1296 20.7288C20.1083 20.6773 20.0973 20.6221 20.0973 20.5664C20.0973 20.5106 20.1083 20.4554 20.1296 20.4039C20.151 20.3524 20.1823 20.3056 20.2217 20.2662L20.2223 20.2657C20.2617 20.2262 20.3084 20.195 20.3599 20.1736C20.4114 20.1523 20.4667 20.1413 20.5224 20.1413C20.5782 20.1413 20.6334 20.1523 20.6849 20.1736C20.7364 20.195 20.7834 20.2265 20.8228 20.266L20.8555 20.2987L20.8608 20.3039C21.0845 20.5227 21.3688 20.6696 21.6768 20.7254C21.9402 20.7732 22.2106 20.7525 22.4625 20.6665C22.5186 20.6581 22.5735 20.6425 22.6259 20.62C22.9068 20.4997 23.1463 20.2998 23.315 20.0451C23.4837 19.7903 23.5742 19.4918 23.5754 19.1863V19.0909C23.5754 18.9784 23.6201 18.8705 23.6997 18.7909C23.7793 18.7114 23.8872 18.6667 23.9997 18.6667C24.1122 18.6667 24.2201 18.7114 24.2997 18.7909C24.3792 18.8705 24.4239 18.9784 24.4239 19.0909V19.1863C24.4251 19.4918 24.5157 19.7903 24.6844 20.0451C24.8531 20.2998 25.0926 20.4997 25.3734 20.62C25.4258 20.6425 25.4807 20.6581 25.5368 20.6665C25.7887 20.7525 26.0592 20.7732 26.3226 20.7254C26.6306 20.6696 26.9148 20.5227 27.1386 20.3039L27.1438 20.2987L27.1765 20.266C27.2159 20.2265 27.263 20.195 27.3145 20.1736C27.366 20.1523 27.4212 20.1413 27.4769 20.1413C27.5327 20.1413 27.5879 20.1523 27.6394 20.1736C27.6909 20.195 27.7377 20.2262 27.7771 20.2657L27.7776 20.2662C27.8171 20.3056 27.8484 20.3524 27.8697 20.4039C27.8911 20.4554 27.902 20.5106 27.902 20.5664C27.902 20.6221 27.8911 20.6773 27.8697 20.7288C27.8484 20.7803 27.8171 20.8271 27.7776 20.8665L27.7394 20.9047C27.5205 21.1285 27.3737 21.4127 27.3179 21.7207C27.2633 22.0218 27.2981 22.3322 27.4178 22.6135C27.5276 22.9002 27.7193 23.1485 27.9693 23.3273C28.225 23.5101 28.5298 23.6119 28.8441 23.6192L28.8597 23.6194H28.9088C29.0213 23.6194 29.1292 23.6641 29.2088 23.7437C29.2883 23.8232 29.333 23.9311 29.333 24.0436C29.333 24.1562 29.2883 24.2641 29.2088 24.3436C29.1292 24.4232 29.0213 24.4679 28.9088 24.4679H28.8134C28.5078 24.4691 28.2093 24.5596 27.9546 24.7283C27.7008 24.8964 27.5016 25.1347 27.381 25.4141C27.2558 25.6996 27.2186 26.0161 27.2742 26.3229C27.3301 26.6309 27.4769 26.9151 27.6958 27.1389L27.701 27.1442L27.7337 27.1769C27.7732 27.2163 27.8047 27.2633 27.8261 27.3148C27.8474 27.3663 27.8584 27.4215 27.8584 27.4773C27.8584 27.533 27.8474 27.5882 27.8261 27.6397C27.8047 27.6912 27.7734 27.738 27.734 27.7774L27.7335 27.778C27.6941 27.8174 27.6473 27.8487 27.5958 27.87C27.5443 27.8914 27.4891 27.9024 27.4333 27.9024C27.3776 27.9024 27.3224 27.8914 27.2709 27.87C27.2193 27.8487 27.1726 27.8174 27.1332 27.778L27.095 27.7398C26.8712 27.5209 26.5869 27.3741 26.2789 27.3182C25.9778 27.2636 25.6675 27.2984 25.3862 27.4181C25.0995 27.5279 24.8512 27.7197 24.6724 27.9696C24.4895 28.2253 24.3878 28.5301 24.3805 28.8444L24.3803 28.86V28.9091C24.3803 29.0216 24.3356 29.1295 24.256 29.2091ZM23.333 24C23.333 23.6318 23.6315 23.3333 23.9997 23.3333C24.3679 23.3333 24.6663 23.6318 24.6663 24C24.6663 24.3682 24.3679 24.6667 23.9997 24.6667C23.6315 24.6667 23.333 24.3682 23.333 24ZM23.9997 22C22.8951 22 21.9997 22.8954 21.9997 24C21.9997 25.1046 22.8951 26 23.9997 26C25.1042 26 25.9997 25.1046 25.9997 24C25.9997 22.8954 25.1042 22 23.9997 22Z" fill="#2083DF"/>
    <path fill-rule="evenodd" clip-rule="evenodd" d="M23.9997 45.3333C23.5335 45.3333 23.0865 45.5185 22.7569 45.8481C22.4273 46.1777 22.2421 46.6248 22.2421 47.0909V47.1818C22.2418 47.227 22.2283 47.2712 22.2033 47.3089C22.1902 47.3286 22.1743 47.3462 22.1561 47.361C22.12 47.3701 22.0847 47.3823 22.0505 47.3974C22.0078 47.4162 21.9605 47.4218 21.9147 47.4135C21.8696 47.4053 21.828 47.3841 21.7949 47.3524L21.7659 47.3234C21.6027 47.16 21.4088 47.0304 21.1954 46.9419C20.9821 46.8535 20.7534 46.8079 20.5224 46.8079C20.2914 46.8079 20.0627 46.8535 19.8494 46.9419C19.6361 47.0303 19.4424 47.1598 19.2792 47.3231C19.1159 47.4863 18.9863 47.6801 18.8979 47.8933C18.8095 48.1067 18.764 48.3354 18.764 48.5664C18.764 48.7973 18.8095 49.026 18.8979 49.2394C18.9864 49.4528 19.116 49.6466 19.2794 49.8098L19.3085 49.8389C19.3401 49.8719 19.3614 49.9136 19.3695 49.9586C19.3778 50.0045 19.3722 50.0518 19.3534 50.0945C19.3477 50.1073 19.3425 50.1203 19.3376 50.1335C19.3215 50.1775 19.2925 50.2155 19.2544 50.2428C19.2177 50.269 19.1743 50.284 19.1293 50.2861H19.0906C18.6244 50.2861 18.1774 50.4712 17.8478 50.8008C17.5182 51.1305 17.333 51.5775 17.333 52.0436C17.333 52.5098 17.5182 52.9568 17.8478 53.2864C18.1774 53.616 18.6244 53.8012 19.0906 53.8012H19.1816C19.2268 53.8016 19.2709 53.815 19.3086 53.84C19.3465 53.8651 19.3762 53.9008 19.3942 53.9426L19.397 53.9492C19.4159 53.9918 19.4215 54.0391 19.4132 54.085C19.405 54.1301 19.3837 54.1717 19.3521 54.2048L19.3228 54.234C19.1595 54.3972 19.03 54.591 18.9416 54.8042C18.8531 55.0176 18.8076 55.2463 18.8076 55.4773C18.8076 55.7082 18.8531 55.937 18.9416 56.1503C19.0299 56.3635 19.1594 56.5571 19.3226 56.7202C19.4858 56.8836 19.6796 57.0133 19.893 57.1017C20.1064 57.1902 20.3351 57.2357 20.566 57.2357C20.797 57.2357 21.0257 57.1902 21.2391 57.1017C21.4523 57.0133 21.6463 56.8835 21.8095 56.7202L21.8385 56.6912C21.8716 56.6596 21.9132 56.6383 21.9583 56.6301C22.0042 56.6218 22.0515 56.6274 22.0941 56.6463C22.107 56.6519 22.12 56.6572 22.1332 56.6621C22.1771 56.6782 22.2152 56.7072 22.2424 56.7453C22.2687 56.782 22.2837 56.8254 22.2857 56.8703V56.9091C22.2857 57.3752 22.4709 57.8223 22.8005 58.1519C23.1198 58.4712 23.5493 58.655 23.9997 58.6661C24.45 58.655 24.8795 58.4712 25.1988 58.1519C25.5284 57.8223 25.7136 57.3752 25.7136 56.9091V56.8703C25.7157 56.8254 25.7307 56.782 25.7569 56.7453C25.7842 56.7072 25.8222 56.6782 25.8662 56.6621C25.8793 56.6572 25.8924 56.6519 25.9052 56.6463C25.9479 56.6274 25.9952 56.6218 26.0411 56.6301C26.0861 56.6383 26.1278 56.6596 26.1608 56.6912L26.1898 56.7202C26.353 56.8835 26.547 57.0133 26.7603 57.1017C26.9736 57.1902 27.2023 57.2357 27.4333 57.2357C27.6643 57.2357 27.893 57.1902 28.1064 57.1017C28.3197 57.0133 28.5136 56.8836 28.6768 56.7202C28.84 56.5571 28.9694 56.3635 29.0578 56.1503C29.1462 55.937 29.1917 55.7082 29.1917 55.4773C29.1917 55.2463 29.1462 55.0176 29.0578 54.8042C28.9694 54.591 28.8398 54.3972 28.6765 54.234L28.6472 54.2048C28.6156 54.1717 28.5944 54.1301 28.5862 54.085C28.5779 54.0391 28.5835 53.9918 28.6023 53.9492L28.6052 53.9426C28.6231 53.9008 28.6529 53.8651 28.6908 53.84C28.7285 53.815 28.7726 53.8016 28.8177 53.8012H28.9088C29.3749 53.8012 29.822 53.616 30.1516 53.2864C30.4812 52.9568 30.6663 52.5098 30.6663 52.0436C30.6663 51.5775 30.4812 51.1305 30.1516 50.8008C29.822 50.4712 29.3749 50.2861 28.9088 50.2861H28.87C28.8251 50.284 28.7816 50.269 28.745 50.2428C28.7069 50.2155 28.6779 50.1775 28.6617 50.1335C28.6569 50.1203 28.6516 50.1073 28.6459 50.0945C28.6271 50.0518 28.6215 50.0045 28.6298 49.9586C28.638 49.9136 28.6592 49.8719 28.6909 49.8389L28.7199 49.8098C28.8833 49.6466 29.013 49.4528 29.1014 49.2394C29.1899 49.026 29.2354 48.7973 29.2354 48.5664C29.2354 48.3354 29.1899 48.1067 29.1014 47.8933C29.013 47.6801 28.8835 47.4863 28.7202 47.3231C28.557 47.1598 28.3632 47.0303 28.15 46.9419C27.9366 46.8535 27.7079 46.8079 27.4769 46.8079C27.246 46.8079 27.0173 46.8535 26.8039 46.9419C26.5905 47.0304 26.3967 47.16 26.2335 47.3234L26.2044 47.3524C26.1714 47.3841 26.1298 47.4053 26.0847 47.4135C26.0388 47.4218 25.9915 47.4162 25.9489 47.3974C25.9146 47.3823 25.8793 47.3701 25.8432 47.361C25.8251 47.3462 25.8091 47.3286 25.796 47.3089C25.7711 47.2712 25.7576 47.227 25.7573 47.1818V47.0909C25.7573 46.6248 25.5721 46.1777 25.2425 45.8481C24.9129 45.5185 24.4658 45.3333 23.9997 45.3333ZM24.256 57.2091C24.1868 57.2783 24.0962 57.3211 23.9997 57.3311C23.9032 57.3211 23.8125 57.2783 23.7433 57.2091C23.6638 57.1295 23.6191 57.0216 23.6191 56.9091V56.86L23.6189 56.8444C23.6115 56.5301 23.5098 56.2253 23.3269 55.9696C23.1481 55.7197 22.8999 55.5279 22.6131 55.4181C22.3318 55.2984 22.0215 55.2636 21.7204 55.3182C21.4124 55.3741 21.1282 55.5209 20.9044 55.7398L20.8662 55.7779C20.8268 55.8174 20.78 55.8487 20.7285 55.87C20.677 55.8914 20.6218 55.9024 20.566 55.9024C20.5103 55.9024 20.4551 55.8914 20.4036 55.87C20.3521 55.8487 20.3053 55.8174 20.2659 55.7779L20.2654 55.7774C20.2259 55.738 20.1946 55.6912 20.1733 55.6397C20.1519 55.5882 20.1409 55.533 20.1409 55.4773C20.1409 55.4215 20.1519 55.3663 20.1733 55.3148C20.1946 55.2633 20.2262 55.2163 20.2656 55.1769L20.2984 55.1442L20.3035 55.1389C20.5224 54.9151 20.6693 54.6309 20.7251 54.3229C20.7807 54.0161 20.7435 53.6996 20.6183 53.4141C20.4978 53.1347 20.2985 52.8964 20.0448 52.7283C19.79 52.5596 19.4915 52.4691 19.186 52.4679H19.0906C18.9781 52.4679 18.8702 52.4232 18.7906 52.3436C18.711 52.2641 18.6663 52.1562 18.6663 52.0436C18.6663 51.9311 18.711 51.8232 18.7906 51.7437C18.8702 51.6641 18.9781 51.6194 19.0906 51.6194H19.1397L19.1553 51.6192C19.4695 51.6119 19.7743 51.5101 20.03 51.3273C20.28 51.1485 20.4718 50.9002 20.5816 50.6135C20.7013 50.3322 20.7361 50.0218 20.6815 49.7207C20.6256 49.4127 20.4788 49.1285 20.2599 48.9047L20.2217 48.8665C20.1823 48.8271 20.151 48.7803 20.1296 48.7288C20.1083 48.6773 20.0973 48.6221 20.0973 48.5664C20.0973 48.5106 20.1083 48.4554 20.1296 48.4039C20.151 48.3524 20.1823 48.3056 20.2217 48.2662L20.2223 48.2657C20.2617 48.2262 20.3084 48.195 20.3599 48.1736C20.4114 48.1523 20.4667 48.1413 20.5224 48.1413C20.5782 48.1413 20.6334 48.1523 20.6849 48.1736C20.7364 48.195 20.7834 48.2265 20.8228 48.2659L20.8555 48.2987L20.8608 48.3038C21.0845 48.5227 21.3688 48.6696 21.6768 48.7254C21.9402 48.7732 22.2106 48.7525 22.4625 48.6665C22.5186 48.6581 22.5735 48.6425 22.6259 48.62C22.9068 48.4997 23.1463 48.2998 23.315 48.0451C23.4837 47.7903 23.5742 47.4918 23.5754 47.1863V47.0909C23.5754 46.9784 23.6201 46.8705 23.6997 46.7909C23.7793 46.7114 23.8872 46.6667 23.9997 46.6667C24.1122 46.6667 24.2201 46.7114 24.2997 46.7909C24.3792 46.8705 24.4239 46.9784 24.4239 47.0909V47.1863C24.4251 47.4918 24.5157 47.7903 24.6844 48.0451C24.8531 48.2998 25.0926 48.4997 25.3734 48.62C25.4258 48.6425 25.4807 48.6581 25.5368 48.6665C25.7887 48.7525 26.0592 48.7732 26.3226 48.7254C26.6306 48.6696 26.9148 48.5227 27.1386 48.3038L27.1438 48.2987L27.1765 48.2659C27.2159 48.2265 27.263 48.195 27.3145 48.1736C27.366 48.1523 27.4212 48.1413 27.4769 48.1413C27.5327 48.1413 27.5879 48.1523 27.6394 48.1736C27.6909 48.195 27.7377 48.2262 27.7771 48.2657L27.7776 48.2662C27.8171 48.3056 27.8484 48.3524 27.8697 48.4039C27.8911 48.4554 27.902 48.5106 27.902 48.5664C27.902 48.6221 27.8911 48.6773 27.8697 48.7288C27.8484 48.7803 27.8171 48.8271 27.7776 48.8665L27.7394 48.9047C27.5205 49.1285 27.3737 49.4127 27.3179 49.7207C27.2633 50.0218 27.2981 50.3322 27.4178 50.6135C27.5276 50.9002 27.7193 51.1485 27.9693 51.3273C28.225 51.5101 28.5298 51.6119 28.8441 51.6192L28.8597 51.6194H28.9088C29.0213 51.6194 29.1292 51.6641 29.2088 51.7437C29.2883 51.8232 29.333 51.9311 29.333 52.0436C29.333 52.1562 29.2883 52.2641 29.2088 52.3436C29.1292 52.4232 29.0213 52.4679 28.9088 52.4679H28.8134C28.5078 52.4691 28.2093 52.5596 27.9546 52.7283C27.7008 52.8964 27.5016 53.1347 27.381 53.4141C27.2558 53.6996 27.2186 54.0161 27.2742 54.3229C27.3301 54.6309 27.4769 54.9151 27.6958 55.1389L27.701 55.1442L27.7337 55.1769C27.7732 55.2163 27.8047 55.2633 27.8261 55.3148C27.8474 55.3663 27.8584 55.4215 27.8584 55.4773C27.8584 55.533 27.8474 55.5882 27.8261 55.6397C27.8047 55.6912 27.7734 55.738 27.734 55.7774L27.7335 55.7779C27.6941 55.8174 27.6473 55.8487 27.5958 55.87C27.5443 55.8914 27.4891 55.9024 27.4333 55.9024C27.3776 55.9024 27.3224 55.8914 27.2709 55.87C27.2193 55.8487 27.1726 55.8174 27.1332 55.7779L27.095 55.7398C26.8712 55.5209 26.5869 55.3741 26.2789 55.3182C25.9778 55.2636 25.6675 55.2984 25.3862 55.4181C25.0995 55.5279 24.8512 55.7197 24.6724 55.9696C24.4895 56.2253 24.3878 56.5301 24.3805 56.8444L24.3803 56.86V56.9091C24.3803 57.0216 24.3356 57.1295 24.256 57.2091ZM23.333 52C23.333 51.6318 23.6315 51.3333 23.9997 51.3333C24.3679 51.3333 24.6663 51.6318 24.6663 52C24.6663 52.3682 24.3679 52.6667 23.9997 52.6667C23.6315 52.6667 23.333 52.3682 23.333 52ZM23.9997 50C22.8951 50 21.9997 50.8954 21.9997 52C21.9997 53.1046 22.8951 54 23.9997 54C25.1042 54 25.9997 53.1046 25.9997 52C25.9997 50.8954 25.1042 50 23.9997 50Z" fill="#2083DF"/>
    <path fill-rule="evenodd" clip-rule="evenodd" d="M23.9997 73.3333C23.5335 73.3333 23.0865 73.5185 22.7569 73.8481C22.4273 74.1777 22.2421 74.6248 22.2421 75.0909V75.1818C22.2418 75.227 22.2283 75.2712 22.2033 75.3089C22.1902 75.3286 22.1743 75.3462 22.1561 75.361C22.12 75.3701 22.0847 75.3823 22.0505 75.3974C22.0078 75.4162 21.9605 75.4218 21.9147 75.4135C21.8696 75.4053 21.828 75.3841 21.7949 75.3524L21.7659 75.3234C21.6027 75.16 21.4088 75.0304 21.1954 74.9419C20.9821 74.8535 20.7534 74.8079 20.5224 74.8079C20.2914 74.8079 20.0627 74.8535 19.8494 74.9419C19.6361 75.0303 19.4424 75.1598 19.2792 75.3231C19.1159 75.4863 18.9863 75.6801 18.8979 75.8933C18.8095 76.1067 18.764 76.3354 18.764 76.5664C18.764 76.7973 18.8095 77.026 18.8979 77.2394C18.9864 77.4528 19.116 77.6466 19.2794 77.8098L19.3085 77.8389C19.3401 77.8719 19.3614 77.9136 19.3695 77.9586C19.3778 78.0045 19.3722 78.0518 19.3534 78.0945C19.3477 78.1073 19.3425 78.1203 19.3376 78.1335C19.3215 78.1775 19.2925 78.2155 19.2544 78.2428C19.2177 78.269 19.1743 78.284 19.1293 78.2861H19.0906C18.6244 78.2861 18.1774 78.4712 17.8478 78.8008C17.5182 79.1305 17.333 79.5775 17.333 80.0436C17.333 80.5098 17.5182 80.9568 17.8478 81.2864C18.1774 81.616 18.6244 81.8012 19.0906 81.8012H19.1816C19.2268 81.8016 19.2709 81.815 19.3086 81.84C19.3465 81.8651 19.3762 81.9008 19.3942 81.9426L19.397 81.9492C19.4159 81.9918 19.4215 82.0391 19.4132 82.085C19.405 82.1301 19.3837 82.1717 19.3521 82.2048L19.3228 82.234C19.1595 82.3972 19.03 82.591 18.9416 82.8042C18.8531 83.0176 18.8076 83.2463 18.8076 83.4773C18.8076 83.7082 18.8531 83.937 18.9416 84.1503C19.0299 84.3635 19.1594 84.5571 19.3226 84.7202C19.4858 84.8836 19.6796 85.0133 19.893 85.1017C20.1064 85.1902 20.3351 85.2357 20.566 85.2357C20.797 85.2357 21.0257 85.1902 21.2391 85.1017C21.4523 85.0133 21.6463 84.8835 21.8095 84.7202L21.8385 84.6912C21.8716 84.6596 21.9132 84.6383 21.9583 84.6301C22.0042 84.6218 22.0515 84.6274 22.0941 84.6463C22.107 84.6519 22.12 84.6572 22.1332 84.6621C22.1771 84.6782 22.2152 84.7072 22.2424 84.7453C22.2687 84.782 22.2837 84.8254 22.2857 84.8703V84.9091C22.2857 85.3752 22.4709 85.8223 22.8005 86.1519C23.1198 86.4712 23.5493 86.655 23.9997 86.6661C24.45 86.655 24.8795 86.4712 25.1988 86.1519C25.5284 85.8223 25.7136 85.3752 25.7136 84.9091V84.8703C25.7157 84.8254 25.7307 84.782 25.7569 84.7453C25.7842 84.7072 25.8222 84.6782 25.8662 84.6621C25.8793 84.6572 25.8924 84.6519 25.9052 84.6463C25.9479 84.6274 25.9952 84.6218 26.0411 84.6301C26.0861 84.6383 26.1278 84.6596 26.1608 84.6912L26.1898 84.7202C26.353 84.8835 26.547 85.0133 26.7603 85.1017C26.9736 85.1902 27.2023 85.2357 27.4333 85.2357C27.6643 85.2357 27.893 85.1902 28.1064 85.1017C28.3197 85.0133 28.5136 84.8836 28.6768 84.7202C28.84 84.5571 28.9694 84.3635 29.0578 84.1503C29.1462 83.937 29.1917 83.7082 29.1917 83.4773C29.1917 83.2463 29.1462 83.0176 29.0578 82.8042C28.9694 82.591 28.8398 82.3972 28.6765 82.234L28.6472 82.2048C28.6156 82.1717 28.5944 82.1301 28.5862 82.085C28.5779 82.0391 28.5835 81.9918 28.6023 81.9492L28.6052 81.9426C28.6231 81.9008 28.6529 81.8651 28.6908 81.84C28.7285 81.815 28.7726 81.8016 28.8177 81.8012H28.9088C29.3749 81.8012 29.822 81.616 30.1516 81.2864C30.4812 80.9568 30.6663 80.5098 30.6663 80.0436C30.6663 79.5775 30.4812 79.1305 30.1516 78.8008C29.822 78.4712 29.3749 78.2861 28.9088 78.2861H28.87C28.8251 78.284 28.7816 78.269 28.745 78.2428C28.7069 78.2155 28.6779 78.1775 28.6617 78.1335C28.6569 78.1203 28.6516 78.1073 28.6459 78.0945C28.6271 78.0518 28.6215 78.0045 28.6298 77.9586C28.638 77.9136 28.6592 77.8719 28.6909 77.8389L28.7199 77.8098C28.8833 77.6466 29.013 77.4528 29.1014 77.2394C29.1899 77.026 29.2354 76.7973 29.2354 76.5664C29.2354 76.3354 29.1899 76.1067 29.1014 75.8933C29.013 75.6801 28.8835 75.4863 28.7202 75.3231C28.557 75.1598 28.3632 75.0303 28.15 74.9419C27.9366 74.8535 27.7079 74.8079 27.4769 74.8079C27.246 74.8079 27.0173 74.8535 26.8039 74.9419C26.5905 75.0304 26.3967 75.16 26.2335 75.3234L26.2044 75.3524C26.1714 75.3841 26.1298 75.4053 26.0847 75.4135C26.0388 75.4218 25.9915 75.4162 25.9489 75.3974C25.9146 75.3823 25.8793 75.3701 25.8432 75.361C25.8251 75.3462 25.8091 75.3286 25.796 75.3089C25.7711 75.2712 25.7576 75.227 25.7573 75.1818V75.0909C25.7573 74.6248 25.5721 74.1777 25.2425 73.8481C24.9129 73.5185 24.4658 73.3333 23.9997 73.3333ZM24.256 85.2091C24.1868 85.2783 24.0962 85.3211 23.9997 85.3311C23.9032 85.3211 23.8125 85.2783 23.7433 85.2091C23.6638 85.1295 23.6191 85.0216 23.6191 84.9091V84.86L23.6189 84.8444C23.6115 84.5301 23.5098 84.2253 23.3269 83.9696C23.1481 83.7197 22.8999 83.5279 22.6131 83.4181C22.3318 83.2984 22.0215 83.2636 21.7204 83.3182C21.4124 83.3741 21.1282 83.5209 20.9044 83.7398L20.8662 83.7779C20.8268 83.8174 20.78 83.8487 20.7285 83.87C20.677 83.8914 20.6218 83.9024 20.566 83.9024C20.5103 83.9024 20.4551 83.8914 20.4036 83.87C20.3521 83.8487 20.3053 83.8174 20.2659 83.7779L20.2654 83.7774C20.2259 83.738 20.1946 83.6912 20.1733 83.6397C20.1519 83.5882 20.1409 83.533 20.1409 83.4773C20.1409 83.4215 20.1519 83.3663 20.1733 83.3148C20.1946 83.2633 20.2262 83.2163 20.2656 83.1769L20.2984 83.1442L20.3035 83.1389C20.5224 82.9151 20.6693 82.6309 20.7251 82.3229C20.7807 82.0161 20.7435 81.6996 20.6183 81.4141C20.4978 81.1347 20.2985 80.8964 20.0448 80.7283C19.79 80.5596 19.4915 80.4691 19.186 80.4679H19.0906C18.9781 80.4679 18.8702 80.4232 18.7906 80.3436C18.711 80.2641 18.6663 80.1562 18.6663 80.0436C18.6663 79.9311 18.711 79.8232 18.7906 79.7437C18.8702 79.6641 18.9781 79.6194 19.0906 79.6194H19.1397L19.1553 79.6192C19.4695 79.6119 19.7743 79.5101 20.03 79.3273C20.28 79.1485 20.4718 78.9002 20.5816 78.6135C20.7013 78.3322 20.7361 78.0218 20.6815 77.7207C20.6256 77.4127 20.4788 77.1285 20.2599 76.9047L20.2217 76.8665C20.1823 76.8271 20.151 76.7803 20.1296 76.7288C20.1083 76.6773 20.0973 76.6221 20.0973 76.5664C20.0973 76.5106 20.1083 76.4554 20.1296 76.4039C20.151 76.3524 20.1823 76.3056 20.2217 76.2662L20.2223 76.2657C20.2617 76.2262 20.3084 76.195 20.3599 76.1736C20.4114 76.1523 20.4667 76.1413 20.5224 76.1413C20.5782 76.1413 20.6334 76.1523 20.6849 76.1736C20.7364 76.195 20.7834 76.2265 20.8228 76.2659L20.8555 76.2987L20.8608 76.3038C21.0845 76.5227 21.3688 76.6696 21.6768 76.7254C21.9402 76.7732 22.2106 76.7525 22.4625 76.6665C22.5186 76.6581 22.5735 76.6425 22.6259 76.62C22.9068 76.4997 23.1463 76.2998 23.315 76.0451C23.4837 75.7903 23.5742 75.4918 23.5754 75.1863V75.0909C23.5754 74.9784 23.6201 74.8705 23.6997 74.7909C23.7793 74.7114 23.8872 74.6667 23.9997 74.6667C24.1122 74.6667 24.2201 74.7114 24.2997 74.7909C24.3792 74.8705 24.4239 74.9784 24.4239 75.0909V75.1863C24.4251 75.4918 24.5157 75.7903 24.6844 76.0451C24.8531 76.2998 25.0926 76.4997 25.3734 76.62C25.4258 76.6425 25.4807 76.6581 25.5368 76.6665C25.7887 76.7525 26.0592 76.7732 26.3226 76.7254C26.6306 76.6696 26.9148 76.5227 27.1386 76.3038L27.1438 76.2987L27.1765 76.2659C27.2159 76.2265 27.263 76.195 27.3145 76.1736C27.366 76.1523 27.4212 76.1413 27.4769 76.1413C27.5327 76.1413 27.5879 76.1523 27.6394 76.1736C27.6909 76.195 27.7377 76.2262 27.7771 76.2657L27.7776 76.2662C27.8171 76.3056 27.8484 76.3524 27.8697 76.4039C27.8911 76.4554 27.902 76.5106 27.902 76.5664C27.902 76.6221 27.8911 76.6773 27.8697 76.7288C27.8484 76.7803 27.8171 76.8271 27.7776 76.8665L27.7394 76.9047C27.5205 77.1285 27.3737 77.4127 27.3179 77.7207C27.2633 78.0218 27.2981 78.3322 27.4178 78.6135C27.5276 78.9002 27.7193 79.1485 27.9693 79.3273C28.225 79.5101 28.5298 79.6119 28.8441 79.6192L28.8597 79.6194H28.9088C29.0213 79.6194 29.1292 79.6641 29.2088 79.7437C29.2883 79.8232 29.333 79.9311 29.333 80.0436C29.333 80.1562 29.2883 80.2641 29.2088 80.3436C29.1292 80.4232 29.0213 80.4679 28.9088 80.4679H28.8134C28.5078 80.4691 28.2093 80.5596 27.9546 80.7283C27.7008 80.8964 27.5016 81.1347 27.381 81.4141C27.2558 81.6996 27.2186 82.0161 27.2742 82.3229C27.3301 82.6309 27.4769 82.9151 27.6958 83.1389L27.701 83.1442L27.7337 83.1769C27.7732 83.2163 27.8047 83.2633 27.8261 83.3148C27.8474 83.3663 27.8584 83.4215 27.8584 83.4773C27.8584 83.533 27.8474 83.5882 27.8261 83.6397C27.8047 83.6912 27.7734 83.738 27.734 83.7774L27.7335 83.7779C27.6941 83.8174 27.6473 83.8487 27.5958 83.87C27.5443 83.8914 27.4891 83.9024 27.4333 83.9024C27.3776 83.9024 27.3224 83.8914 27.2709 83.87C27.2193 83.8487 27.1726 83.8174 27.1332 83.7779L27.095 83.7398C26.8712 83.5209 26.5869 83.3741 26.2789 83.3182C25.9778 83.2636 25.6675 83.2984 25.3862 83.4181C25.0995 83.5279 24.8512 83.7197 24.6724 83.9696C24.4895 84.2253 24.3878 84.5301 24.3805 84.8444L24.3803 84.86V84.9091C24.3803 85.0216 24.3356 85.1295 24.256 85.2091ZM23.333 80C23.333 79.6318 23.6315 79.3333 23.9997 79.3333C24.3679 79.3333 24.6663 79.6318 24.6663 80C24.6663 80.3682 24.3679 80.6667 23.9997 80.6667C23.6315 80.6667 23.333 80.3682 23.333 80ZM23.9997 78C22.8951 78 21.9997 78.8954 21.9997 80C21.9997 81.1046 22.8951 82 23.9997 82C25.1042 82 25.9997 81.1046 25.9997 80C25.9997 78.8954 25.1042 78 23.9997 78Z" fill="#2083DF"/>
    <path fill-rule="evenodd" clip-rule="evenodd" d="M23.9997 101.333C23.5335 101.333 23.0865 101.519 22.7569 101.848C22.4273 102.178 22.2421 102.625 22.2421 103.091V103.182C22.2418 103.227 22.2283 103.271 22.2033 103.309C22.1902 103.329 22.1743 103.346 22.1561 103.361C22.12 103.37 22.0847 103.382 22.0505 103.397C22.0078 103.416 21.9605 103.422 21.9147 103.413C21.8696 103.405 21.828 103.384 21.7949 103.352L21.7659 103.323C21.6027 103.16 21.4088 103.03 21.1954 102.942C20.9821 102.853 20.7534 102.808 20.5224 102.808C20.2914 102.808 20.0627 102.853 19.8494 102.942C19.6361 103.03 19.4424 103.16 19.2792 103.323C19.1159 103.486 18.9863 103.68 18.8979 103.893C18.8095 104.107 18.764 104.335 18.764 104.566C18.764 104.797 18.8095 105.026 18.8979 105.239C18.9864 105.453 19.116 105.647 19.2794 105.81L19.3085 105.839C19.3401 105.872 19.3614 105.914 19.3695 105.959C19.3778 106.004 19.3722 106.052 19.3534 106.094C19.3477 106.107 19.3425 106.12 19.3376 106.134C19.3215 106.177 19.2925 106.216 19.2544 106.243C19.2177 106.269 19.1743 106.284 19.1293 106.286H19.0906C18.6244 106.286 18.1774 106.471 17.8478 106.801C17.5182 107.13 17.333 107.577 17.333 108.044C17.333 108.51 17.5182 108.957 17.8478 109.286C18.1774 109.616 18.6244 109.801 19.0906 109.801H19.1816C19.2268 109.802 19.2709 109.815 19.3086 109.84C19.3465 109.865 19.3762 109.901 19.3942 109.943L19.397 109.949C19.4159 109.992 19.4215 110.039 19.4132 110.085C19.405 110.13 19.3837 110.172 19.3521 110.205L19.3228 110.234C19.1595 110.397 19.03 110.591 18.9416 110.804C18.8531 111.018 18.8076 111.246 18.8076 111.477C18.8076 111.708 18.8531 111.937 18.9416 112.15C19.0299 112.363 19.1594 112.557 19.3226 112.72C19.4858 112.884 19.6796 113.013 19.893 113.102C20.1064 113.19 20.3351 113.236 20.566 113.236C20.797 113.236 21.0257 113.19 21.2391 113.102C21.4523 113.013 21.6463 112.884 21.8095 112.72L21.8385 112.691C21.8716 112.66 21.9132 112.638 21.9583 112.63C22.0042 112.622 22.0515 112.627 22.0941 112.646C22.107 112.652 22.12 112.657 22.1332 112.662C22.1771 112.678 22.2152 112.707 22.2424 112.745C22.2687 112.782 22.2837 112.825 22.2857 112.87V112.909C22.2857 113.375 22.4709 113.822 22.8005 114.152C23.1198 114.471 23.5493 114.655 23.9997 114.666C24.45 114.655 24.8795 114.471 25.1988 114.152C25.5284 113.822 25.7136 113.375 25.7136 112.909V112.87C25.7157 112.825 25.7307 112.782 25.7569 112.745C25.7842 112.707 25.8222 112.678 25.8662 112.662C25.8793 112.657 25.8924 112.652 25.9052 112.646C25.9479 112.627 25.9952 112.622 26.0411 112.63C26.0861 112.638 26.1278 112.66 26.1608 112.691L26.1898 112.72C26.353 112.884 26.547 113.013 26.7603 113.102C26.9736 113.19 27.2023 113.236 27.4333 113.236C27.6643 113.236 27.893 113.19 28.1064 113.102C28.3197 113.013 28.5136 112.884 28.6768 112.72C28.84 112.557 28.9694 112.363 29.0578 112.15C29.1462 111.937 29.1917 111.708 29.1917 111.477C29.1917 111.246 29.1462 111.018 29.0578 110.804C28.9694 110.591 28.8398 110.397 28.6765 110.234L28.6472 110.205C28.6156 110.172 28.5944 110.13 28.5862 110.085C28.5779 110.039 28.5835 109.992 28.6023 109.949L28.6052 109.943C28.6231 109.901 28.6529 109.865 28.6908 109.84C28.7285 109.815 28.7726 109.802 28.8177 109.801H28.9088C29.3749 109.801 29.822 109.616 30.1516 109.286C30.4812 108.957 30.6663 108.51 30.6663 108.044C30.6663 107.577 30.4812 107.13 30.1516 106.801C29.822 106.471 29.3749 106.286 28.9088 106.286H28.87C28.8251 106.284 28.7816 106.269 28.745 106.243C28.7069 106.216 28.6779 106.177 28.6617 106.134C28.6569 106.12 28.6516 106.107 28.6459 106.094C28.6271 106.052 28.6215 106.004 28.6298 105.959C28.638 105.914 28.6592 105.872 28.6909 105.839L28.7199 105.81C28.8833 105.647 29.013 105.453 29.1014 105.239C29.1899 105.026 29.2354 104.797 29.2354 104.566C29.2354 104.335 29.1899 104.107 29.1014 103.893C29.013 103.68 28.8835 103.486 28.7202 103.323C28.557 103.16 28.3632 103.03 28.15 102.942C27.9366 102.853 27.7079 102.808 27.4769 102.808C27.246 102.808 27.0173 102.853 26.8039 102.942C26.5905 103.03 26.3967 103.16 26.2335 103.323L26.2044 103.352C26.1714 103.384 26.1298 103.405 26.0847 103.413C26.0388 103.422 25.9915 103.416 25.9489 103.397C25.9146 103.382 25.8793 103.37 25.8432 103.361C25.8251 103.346 25.8091 103.329 25.796 103.309C25.7711 103.271 25.7576 103.227 25.7573 103.182V103.091C25.7573 102.625 25.5721 102.178 25.2425 101.848C24.9129 101.519 24.4658 101.333 23.9997 101.333ZM24.256 113.209C24.1868 113.278 24.0962 113.321 23.9997 113.331C23.9032 113.321 23.8125 113.278 23.7433 113.209C23.6638 113.13 23.6191 113.022 23.6191 112.909V112.86L23.6189 112.844C23.6115 112.53 23.5098 112.225 23.3269 111.97C23.1481 111.72 22.8999 111.528 22.6131 111.418C22.3318 111.298 22.0215 111.264 21.7204 111.318C21.4124 111.374 21.1282 111.521 20.9044 111.74L20.8662 111.778C20.8268 111.817 20.78 111.849 20.7285 111.87C20.677 111.891 20.6218 111.902 20.566 111.902C20.5103 111.902 20.4551 111.891 20.4036 111.87C20.3521 111.849 20.3053 111.817 20.2659 111.778L20.2654 111.777C20.2259 111.738 20.1946 111.691 20.1733 111.64C20.1519 111.588 20.1409 111.533 20.1409 111.477C20.1409 111.422 20.1519 111.366 20.1733 111.315C20.1946 111.263 20.2262 111.216 20.2656 111.177L20.2984 111.144L20.3035 111.139C20.5224 110.915 20.6693 110.631 20.7251 110.323C20.7807 110.016 20.7435 109.7 20.6183 109.414C20.4978 109.135 20.2985 108.896 20.0448 108.728C19.79 108.56 19.4915 108.469 19.186 108.468H19.0906C18.9781 108.468 18.8702 108.423 18.7906 108.344C18.711 108.264 18.6663 108.156 18.6663 108.044C18.6663 107.931 18.711 107.823 18.7906 107.744C18.8702 107.664 18.9781 107.619 19.0906 107.619H19.1397L19.1553 107.619C19.4695 107.612 19.7743 107.51 20.03 107.327C20.28 107.148 20.4718 106.9 20.5816 106.613C20.7013 106.332 20.7361 106.022 20.6815 105.721C20.6256 105.413 20.4788 105.128 20.2599 104.905L20.2217 104.867C20.1823 104.827 20.151 104.78 20.1296 104.729C20.1083 104.677 20.0973 104.622 20.0973 104.566C20.0973 104.511 20.1083 104.455 20.1296 104.404C20.151 104.352 20.1823 104.306 20.2217 104.266L20.2223 104.266C20.2617 104.226 20.3084 104.195 20.3599 104.174C20.4114 104.152 20.4667 104.141 20.5224 104.141C20.5782 104.141 20.6334 104.152 20.6849 104.174C20.7364 104.195 20.7834 104.227 20.8228 104.266L20.8555 104.299L20.8608 104.304C21.0845 104.523 21.3688 104.67 21.6768 104.725C21.9402 104.773 22.2106 104.753 22.4625 104.667C22.5186 104.658 22.5735 104.642 22.6259 104.62C22.9068 104.5 23.1463 104.3 23.315 104.045C23.4837 103.79 23.5742 103.492 23.5754 103.186V103.091C23.5754 102.978 23.6201 102.87 23.6997 102.791C23.7793 102.711 23.8872 102.667 23.9997 102.667C24.1122 102.667 24.2201 102.711 24.2997 102.791C24.3792 102.87 24.4239 102.978 24.4239 103.091V103.186C24.4251 103.492 24.5157 103.79 24.6844 104.045C24.8531 104.3 25.0926 104.5 25.3734 104.62C25.4258 104.642 25.4807 104.658 25.5368 104.667C25.7887 104.753 26.0592 104.773 26.3226 104.725C26.6306 104.67 26.9148 104.523 27.1386 104.304L27.1438 104.299L27.1765 104.266C27.2159 104.227 27.263 104.195 27.3145 104.174C27.366 104.152 27.4212 104.141 27.4769 104.141C27.5327 104.141 27.5879 104.152 27.6394 104.174C27.6909 104.195 27.7377 104.226 27.7771 104.266L27.7776 104.266C27.8171 104.306 27.8484 104.352 27.8697 104.404C27.8911 104.455 27.902 104.511 27.902 104.566C27.902 104.622 27.8911 104.677 27.8697 104.729C27.8484 104.78 27.8171 104.827 27.7776 104.867L27.7394 104.905C27.5205 105.128 27.3737 105.413 27.3179 105.721C27.2633 106.022 27.2981 106.332 27.4178 106.613C27.5276 106.9 27.7193 107.148 27.9693 107.327C28.225 107.51 28.5298 107.612 28.8441 107.619L28.8597 107.619H28.9088C29.0213 107.619 29.1292 107.664 29.2088 107.744C29.2883 107.823 29.333 107.931 29.333 108.044C29.333 108.156 29.2883 108.264 29.2088 108.344C29.1292 108.423 29.0213 108.468 28.9088 108.468H28.8134C28.5078 108.469 28.2093 108.56 27.9546 108.728C27.7008 108.896 27.5016 109.135 27.381 109.414C27.2558 109.7 27.2186 110.016 27.2742 110.323C27.3301 110.631 27.4769 110.915 27.6958 111.139L27.701 111.144L27.7337 111.177C27.7732 111.216 27.8047 111.263 27.8261 111.315C27.8474 111.366 27.8584 111.422 27.8584 111.477C27.8584 111.533 27.8474 111.588 27.8261 111.64C27.8047 111.691 27.7734 111.738 27.734 111.777L27.7335 111.778C27.6941 111.817 27.6473 111.849 27.5958 111.87C27.5443 111.891 27.4891 111.902 27.4333 111.902C27.3776 111.902 27.3224 111.891 27.2709 111.87C27.2193 111.849 27.1726 111.817 27.1332 111.778L27.095 111.74C26.8712 111.521 26.5869 111.374 26.2789 111.318C25.9778 111.264 25.6675 111.298 25.3862 111.418C25.0995 111.528 24.8512 111.72 24.6724 111.97C24.4895 112.225 24.3878 112.53 24.3805 112.844L24.3803 112.86V112.909C24.3803 113.022 24.3356 113.13 24.256 113.209ZM23.333 108C23.333 107.632 23.6315 107.333 23.9997 107.333C24.3679 107.333 24.6663 107.632 24.6663 108C24.6663 108.368 24.3679 108.667 23.9997 108.667C23.6315 108.667 23.333 108.368 23.333 108ZM23.9997 106C22.8951 106 21.9997 106.895 21.9997 108C21.9997 109.105 22.8951 110 23.9997 110C25.1042 110 25.9997 109.105 25.9997 108C25.9997 106.895 25.1042 106 23.9997 106Z" fill="#2083DF"/>
    <path fill-rule="evenodd" clip-rule="evenodd" d="M23.9997 129.333C23.5335 129.333 23.0865 129.519 22.7569 129.848C22.4273 130.178 22.2421 130.625 22.2421 131.091V131.182C22.2418 131.227 22.2283 131.271 22.2033 131.309C22.1902 131.329 22.1743 131.346 22.1561 131.361C22.12 131.37 22.0847 131.382 22.0505 131.397C22.0078 131.416 21.9605 131.422 21.9147 131.413C21.8696 131.405 21.828 131.384 21.7949 131.352L21.7659 131.323C21.6027 131.16 21.4088 131.03 21.1954 130.942C20.9821 130.853 20.7534 130.808 20.5224 130.808C20.2914 130.808 20.0627 130.853 19.8494 130.942C19.6361 131.03 19.4424 131.16 19.2792 131.323C19.1159 131.486 18.9863 131.68 18.8979 131.893C18.8095 132.107 18.764 132.335 18.764 132.566C18.764 132.797 18.8095 133.026 18.8979 133.239C18.9864 133.453 19.116 133.647 19.2794 133.81L19.3085 133.839C19.3401 133.872 19.3614 133.914 19.3695 133.959C19.3778 134.004 19.3722 134.052 19.3534 134.094C19.3477 134.107 19.3425 134.12 19.3376 134.134C19.3215 134.177 19.2925 134.216 19.2544 134.243C19.2177 134.269 19.1743 134.284 19.1293 134.286H19.0906C18.6244 134.286 18.1774 134.471 17.8478 134.801C17.5182 135.13 17.333 135.577 17.333 136.044C17.333 136.51 17.5182 136.957 17.8478 137.286C18.1774 137.616 18.6244 137.801 19.0906 137.801H19.1816C19.2268 137.802 19.2709 137.815 19.3086 137.84C19.3465 137.865 19.3762 137.901 19.3942 137.943L19.397 137.949C19.4159 137.992 19.4215 138.039 19.4132 138.085C19.405 138.13 19.3837 138.172 19.3521 138.205L19.3228 138.234C19.1595 138.397 19.03 138.591 18.9416 138.804C18.8531 139.018 18.8076 139.246 18.8076 139.477C18.8076 139.708 18.8531 139.937 18.9416 140.15C19.0299 140.363 19.1594 140.557 19.3226 140.72C19.4858 140.884 19.6796 141.013 19.893 141.102C20.1064 141.19 20.3351 141.236 20.566 141.236C20.797 141.236 21.0257 141.19 21.2391 141.102C21.4523 141.013 21.6463 140.884 21.8095 140.72L21.8385 140.691C21.8716 140.66 21.9132 140.638 21.9583 140.63C22.0042 140.622 22.0515 140.627 22.0941 140.646C22.107 140.652 22.12 140.657 22.1332 140.662C22.1771 140.678 22.2152 140.707 22.2424 140.745C22.2687 140.782 22.2837 140.825 22.2857 140.87V140.909C22.2857 141.375 22.4709 141.822 22.8005 142.152C23.1198 142.471 23.5493 142.655 23.9997 142.666C24.45 142.655 24.8795 142.471 25.1988 142.152C25.5284 141.822 25.7136 141.375 25.7136 140.909V140.87C25.7157 140.825 25.7307 140.782 25.7569 140.745C25.7842 140.707 25.8222 140.678 25.8662 140.662C25.8793 140.657 25.8924 140.652 25.9052 140.646C25.9479 140.627 25.9952 140.622 26.0411 140.63C26.0861 140.638 26.1278 140.66 26.1608 140.691L26.1898 140.72C26.353 140.884 26.547 141.013 26.7603 141.102C26.9736 141.19 27.2023 141.236 27.4333 141.236C27.6643 141.236 27.893 141.19 28.1064 141.102C28.3197 141.013 28.5136 140.884 28.6768 140.72C28.84 140.557 28.9694 140.363 29.0578 140.15C29.1462 139.937 29.1917 139.708 29.1917 139.477C29.1917 139.246 29.1462 139.018 29.0578 138.804C28.9694 138.591 28.8398 138.397 28.6765 138.234L28.6472 138.205C28.6156 138.172 28.5944 138.13 28.5862 138.085C28.5779 138.039 28.5835 137.992 28.6023 137.949L28.6052 137.943C28.6231 137.901 28.6529 137.865 28.6908 137.84C28.7285 137.815 28.7726 137.802 28.8177 137.801H28.9088C29.3749 137.801 29.822 137.616 30.1516 137.286C30.4812 136.957 30.6663 136.51 30.6663 136.044C30.6663 135.577 30.4812 135.13 30.1516 134.801C29.822 134.471 29.3749 134.286 28.9088 134.286H28.87C28.8251 134.284 28.7816 134.269 28.745 134.243C28.7069 134.216 28.6779 134.177 28.6617 134.134C28.6569 134.12 28.6516 134.107 28.6459 134.094C28.6271 134.052 28.6215 134.004 28.6298 133.959C28.638 133.914 28.6592 133.872 28.6909 133.839L28.7199 133.81C28.8833 133.647 29.013 133.453 29.1014 133.239C29.1899 133.026 29.2354 132.797 29.2354 132.566C29.2354 132.335 29.1899 132.107 29.1014 131.893C29.013 131.68 28.8835 131.486 28.7202 131.323C28.557 131.16 28.3632 131.03 28.15 130.942C27.9366 130.853 27.7079 130.808 27.4769 130.808C27.246 130.808 27.0173 130.853 26.8039 130.942C26.5905 131.03 26.3967 131.16 26.2335 131.323L26.2044 131.352C26.1714 131.384 26.1298 131.405 26.0847 131.413C26.0388 131.422 25.9915 131.416 25.9489 131.397C25.9146 131.382 25.8793 131.37 25.8432 131.361C25.8251 131.346 25.8091 131.329 25.796 131.309C25.7711 131.271 25.7576 131.227 25.7573 131.182V131.091C25.7573 130.625 25.5721 130.178 25.2425 129.848C24.9129 129.519 24.4658 129.333 23.9997 129.333ZM24.256 141.209C24.1868 141.278 24.0962 141.321 23.9997 141.331C23.9032 141.321 23.8125 141.278 23.7433 141.209C23.6638 141.13 23.6191 141.022 23.6191 140.909V140.86L23.6189 140.844C23.6115 140.53 23.5098 140.225 23.3269 139.97C23.1481 139.72 22.8999 139.528 22.6131 139.418C22.3318 139.298 22.0215 139.264 21.7204 139.318C21.4124 139.374 21.1282 139.521 20.9044 139.74L20.8662 139.778C20.8268 139.817 20.78 139.849 20.7285 139.87C20.677 139.891 20.6218 139.902 20.566 139.902C20.5103 139.902 20.4551 139.891 20.4036 139.87C20.3521 139.849 20.3053 139.817 20.2659 139.778L20.2654 139.777C20.2259 139.738 20.1946 139.691 20.1733 139.64C20.1519 139.588 20.1409 139.533 20.1409 139.477C20.1409 139.422 20.1519 139.366 20.1733 139.315C20.1946 139.263 20.2262 139.216 20.2656 139.177L20.2984 139.144L20.3035 139.139C20.5224 138.915 20.6693 138.631 20.7251 138.323C20.7807 138.016 20.7435 137.7 20.6183 137.414C20.4978 137.135 20.2985 136.896 20.0448 136.728C19.79 136.56 19.4915 136.469 19.186 136.468H19.0906C18.9781 136.468 18.8702 136.423 18.7906 136.344C18.711 136.264 18.6663 136.156 18.6663 136.044C18.6663 135.931 18.711 135.823 18.7906 135.744C18.8702 135.664 18.9781 135.619 19.0906 135.619H19.1397L19.1553 135.619C19.4695 135.612 19.7743 135.51 20.03 135.327C20.28 135.148 20.4718 134.9 20.5816 134.613C20.7013 134.332 20.7361 134.022 20.6815 133.721C20.6256 133.413 20.4788 133.128 20.2599 132.905L20.2217 132.867C20.1823 132.827 20.151 132.78 20.1296 132.729C20.1083 132.677 20.0973 132.622 20.0973 132.566C20.0973 132.511 20.1083 132.455 20.1296 132.404C20.151 132.352 20.1823 132.306 20.2217 132.266L20.2223 132.266C20.2617 132.226 20.3084 132.195 20.3599 132.174C20.4114 132.152 20.4667 132.141 20.5224 132.141C20.5782 132.141 20.6334 132.152 20.6849 132.174C20.7364 132.195 20.7834 132.227 20.8228 132.266L20.8555 132.299L20.8608 132.304C21.0845 132.523 21.3688 132.67 21.6768 132.725C21.9402 132.773 22.2106 132.753 22.4625 132.667C22.5186 132.658 22.5735 132.642 22.6259 132.62C22.9068 132.5 23.1463 132.3 23.315 132.045C23.4837 131.79 23.5742 131.492 23.5754 131.186V131.091C23.5754 130.978 23.6201 130.87 23.6997 130.791C23.7793 130.711 23.8872 130.667 23.9997 130.667C24.1122 130.667 24.2201 130.711 24.2997 130.791C24.3792 130.87 24.4239 130.978 24.4239 131.091V131.186C24.4251 131.492 24.5157 131.79 24.6844 132.045C24.8531 132.3 25.0926 132.5 25.3734 132.62C25.4258 132.642 25.4807 132.658 25.5368 132.667C25.7887 132.753 26.0592 132.773 26.3226 132.725C26.6306 132.67 26.9148 132.523 27.1386 132.304L27.1438 132.299L27.1765 132.266C27.2159 132.227 27.263 132.195 27.3145 132.174C27.366 132.152 27.4212 132.141 27.4769 132.141C27.5327 132.141 27.5879 132.152 27.6394 132.174C27.6909 132.195 27.7377 132.226 27.7771 132.266L27.7776 132.266C27.8171 132.306 27.8484 132.352 27.8697 132.404C27.8911 132.455 27.902 132.511 27.902 132.566C27.902 132.622 27.8911 132.677 27.8697 132.729C27.8484 132.78 27.8171 132.827 27.7776 132.867L27.7394 132.905C27.5205 133.128 27.3737 133.413 27.3179 133.721C27.2633 134.022 27.2981 134.332 27.4178 134.613C27.5276 134.9 27.7193 135.148 27.9693 135.327C28.225 135.51 28.5298 135.612 28.8441 135.619L28.8597 135.619H28.9088C29.0213 135.619 29.1292 135.664 29.2088 135.744C29.2883 135.823 29.333 135.931 29.333 136.044C29.333 136.156 29.2883 136.264 29.2088 136.344C29.1292 136.423 29.0213 136.468 28.9088 136.468H28.8134C28.5078 136.469 28.2093 136.56 27.9546 136.728C27.7008 136.896 27.5016 137.135 27.381 137.414C27.2558 137.7 27.2186 138.016 27.2742 138.323C27.3301 138.631 27.4769 138.915 27.6958 139.139L27.701 139.144L27.7337 139.177C27.7732 139.216 27.8047 139.263 27.8261 139.315C27.8474 139.366 27.8584 139.422 27.8584 139.477C27.8584 139.533 27.8474 139.588 27.8261 139.64C27.8047 139.691 27.7734 139.738 27.734 139.777L27.7335 139.778C27.6941 139.817 27.6473 139.849 27.5958 139.87C27.5443 139.891 27.4891 139.902 27.4333 139.902C27.3776 139.902 27.3224 139.891 27.2709 139.87C27.2193 139.849 27.1726 139.817 27.1332 139.778L27.095 139.74C26.8712 139.521 26.5869 139.374 26.2789 139.318C25.9778 139.264 25.6675 139.298 25.3862 139.418C25.0995 139.528 24.8512 139.72 24.6724 139.97C24.4895 140.225 24.3878 140.53 24.3805 140.844L24.3803 140.86V140.909C24.3803 141.022 24.3356 141.13 24.256 141.209ZM23.333 136C23.333 135.632 23.6315 135.333 23.9997 135.333C24.3679 135.333 24.6663 135.632 24.6663 136C24.6663 136.368 24.3679 136.667 23.9997 136.667C23.6315 136.667 23.333 136.368 23.333 136ZM23.9997 134C22.8951 134 21.9997 134.895 21.9997 136C21.9997 137.105 22.8951 138 23.9997 138C25.1042 138 25.9997 137.105 25.9997 136C25.9997 134.895 25.1042 134 23.9997 134Z" fill="#2083DF"/>
</svg>
