<svg width="248" height="160" viewBox="0 0 248 160" fill="none" xmlns="http://www.w3.org/2000/svg">
    <path d="M0 8C0 3.58172 3.58172 0 8 0H240C244.418 0 248 3.58172 248 8V152C248 156.418 244.418 160 240 160H8.00001C3.58173 160 0 156.418 0 152V8Z" fill="white"/>
    <rect x="20" y="20" width="32" height="32" rx="16" fill="#3D9CF5"/>
    <path d="M12 75.5C12 73.567 13.567 72 15.5 72H56.5C58.433 72 60 73.567 60 75.5C60 77.433 58.433 79 56.5 79H15.5C13.567 79 12 77.433 12 75.5Z" fill="#F9F9FB"/>
    <path d="M12 143.5C12 141.567 13.567 140 15.5 140H56.5C58.433 140 60 141.567 60 143.5C60 145.433 58.433 147 56.5 147H15.5C13.567 147 12 145.433 12 143.5Z" fill="#F9F9FB"/>
    <path d="M12 126.5C12 124.567 13.567 123 15.5 123H56.5C58.433 123 60 124.567 60 126.5C60 128.433 58.433 130 56.5 130H15.5C13.567 130 12 128.433 12 126.5Z" fill="#F9F9FB"/>
    <path d="M12 109.5C12 107.567 13.567 106 15.5 106H56.5C58.433 106 60 107.567 60 109.5C60 111.433 58.433 113 56.5 113H15.5C13.567 113 12 111.433 12 109.5Z" fill="#F9F9FB"/>
    <path d="M12 92.5C12 90.567 13.567 89 15.5 89H56.5C58.433 89 60 90.567 60 92.5C60 94.433 58.433 96 56.5 96H15.5C13.567 96 12 94.433 12 92.5Z" fill="#F9F9FB"/>
    <g filter="url(#filter0_d_72_52)">
        <path d="M72 20C72 15.5817 75.5817 12 80 12H228C232.418 12 236 15.5817 236 20V140C236 144.418 232.418 148 228 148H80C75.5817 148 72 144.418 72 140V20Z" fill="white"/>
        <rect x="87" y="36" width="2" height="18" fill="#FAB404"/>
        <rect x="87" y="70" width="2" height="18" fill="#2BA329"/>
        <rect x="87" y="104" width="2" height="18" fill="#E53E19"/>
        <path d="M100 24C100 21.7909 101.791 20 104 20H224C226.209 20 228 21.7909 228 24V32C228 34.2091 226.209 36 224 36H104C101.791 36 100 34.2091 100 32V24Z" fill="#F9F9FB"/>
        <path d="M100 58C100 55.7909 101.791 54 104 54H224C226.209 54 228 55.7909 228 58V66C228 68.2091 226.209 70 224 70H104C101.791 70 100 68.2091 100 66V58Z" fill="#F9F9FB"/>
        <path d="M100 92C100 89.7909 101.791 88 104 88H224C226.209 88 228 89.7909 228 92V100C228 102.209 226.209 104 224 104H104C101.791 104 100 102.209 100 100V92Z" fill="#F9F9FB"/>
        <path d="M100 126C100 123.791 101.791 122 104 122H224C226.209 122 228 123.791 228 126V134C228 136.209 226.209 138 224 138H104C101.791 138 100 136.209 100 134V126Z" fill="#F9F9FB"/>
        <rect x="216" y="24" width="8" height="8" rx="2" fill="#D4D8E2"/>
        <rect x="216" y="58" width="8" height="8" rx="2" fill="#D4D8E2"/>
        <rect x="216" y="92" width="8" height="8" rx="2" fill="#D4D8E2"/>
        <rect x="216" y="126" width="8" height="8" rx="2" fill="#D4D8E2"/>
        <rect x="206" y="24" width="8" height="8" rx="2" fill="#D4D8E2"/>
        <rect x="206" y="58" width="8" height="8" rx="2" fill="#D4D8E2"/>
        <rect x="206" y="92" width="8" height="8" rx="2" fill="#D4D8E2"/>
        <rect x="206" y="126" width="8" height="8" rx="2" fill="#D4D8E2"/>
        <rect x="196" y="24" width="8" height="8" rx="2" fill="#D4D8E2"/>
        <rect x="196" y="58" width="8" height="8" rx="2" fill="#D4D8E2"/>
        <rect x="196" y="92" width="8" height="8" rx="2" fill="#D4D8E2"/>
        <rect x="196" y="126" width="8" height="8" rx="2" fill="#D4D8E2"/>
        <rect x="80" y="20" width="16" height="16" rx="8" fill="#FAB404"/>
        <rect x="80" y="54" width="16" height="16" rx="8" fill="#2BA329"/>
        <rect x="80" y="88" width="16" height="16" rx="8" fill="#E53E19"/>
        <rect x="80" y="122" width="16" height="16" rx="8" fill="#3D9CF5"/>
    </g>
    <path d="M52 16C52 13.7909 53.7909 12 56 12C58.2091 12 60 13.7909 60 16C60 18.2091 58.2091 20 56 20C53.7909 20 52 18.2091 52 16Z" fill="#2BA329"/>
    <defs>
        <filter id="filter0_d_72_52" x="67" y="7" width="174" height="146" filterUnits="userSpaceOnUse" color-interpolation-filters="sRGB">
            <feFlood flood-opacity="0" result="BackgroundImageFix"/>
            <feColorMatrix in="SourceAlpha" type="matrix" values="0 0 0 0 0 0 0 0 0 0 0 0 0 0 0 0 0 0 127 0" result="hardAlpha"/>
            <feMorphology radius="1" operator="dilate" in="SourceAlpha" result="effect1_dropShadow_72_52"/>
            <feOffset/>
            <feGaussianBlur stdDeviation="2"/>
            <feColorMatrix type="matrix" values="0 0 0 0 0 0 0 0 0 0 0 0 0 0 0 0 0 0 0.08 0"/>
            <feBlend mode="normal" in2="BackgroundImageFix" result="effect1_dropShadow_72_52"/>
            <feBlend mode="normal" in="SourceGraphic" in2="effect1_dropShadow_72_52" result="shape"/>
        </filter>
    </defs>
</svg>
