<svg width="70" height="24" viewBox="0 0 70 24" fill="none" xmlns="http://www.w3.org/2000/svg">
    <path d="M24.6765 22C24.1242 22 23.6765 21.5523 23.6765 21V3.23532C23.6765 2.68304 24.1242 2.23532 24.6765 2.23532H32.7118C34.5189 2.23532 36.0718 2.52709 37.3706 3.11062C38.6883 3.69414 39.7047 4.5412 40.42 5.65179C41.1353 6.74355 41.493 8.04238 41.493 9.54826C41.493 11.0353 41.1353 12.3247 40.42 13.4165C39.7047 14.4894 38.6883 15.3177 37.3706 15.9012C36.0718 16.4659 34.5189 16.7483 32.7118 16.7483H28.5607C27.9215 16.7483 27.611 15.9667 28.0761 15.5281C28.5267 15.1031 29.2671 15.4225 29.2671 16.0419V21C29.2671 21.5523 28.8194 22 28.2671 22H24.6765ZM36.4307 22C36.1001 22 35.7909 21.8367 35.6046 21.5637L32.0564 16.3637C31.6035 15.6999 32.0788 14.8 32.8824 14.8H36.4205C36.7501 14.8 37.0585 14.9624 37.245 15.2342L40.8137 20.4342C41.2691 21.0977 40.7939 22 39.9891 22H36.4307ZM29.2671 13.1682C29.2671 13.8333 28.4577 14.1607 27.9953 13.6825C27.5412 13.2129 27.874 12.4283 28.5272 12.4283H32.373C33.54 12.4283 34.4059 12.1741 34.9706 11.6659C35.5542 11.1577 35.8459 10.4518 35.8459 9.54826C35.8459 8.62591 35.5542 7.91061 34.9706 7.40238C34.4059 6.89414 33.54 6.64002 32.373 6.64002H28.5272C27.874 6.64002 27.5412 5.85534 27.9953 5.38577C28.4577 4.90759 29.2671 5.23494 29.2671 5.90012V13.1682Z" fill="#EBEDF2"/>
    <path d="M45.5772 22C45.0249 22 44.5772 21.5523 44.5772 21V3.23532C44.5772 2.68304 45.0249 2.23532 45.5772 2.23532H48.6178C48.9667 2.23532 49.2903 2.41712 49.4718 2.71503L56.7316 14.631C57.0104 15.0887 56.681 15.6753 56.1449 15.6753C55.6127 15.6753 55.2827 15.0962 55.554 14.6383L62.6114 2.72562C62.7915 2.4217 63.1185 2.23532 63.4718 2.23532H66.5071C67.0583 2.23532 67.5055 2.6813 67.5071 3.23246L67.5579 20.9972C67.5595 21.5506 67.1113 22 66.5579 22H63.4172C62.8668 22 62.4198 21.5552 62.4172 21.0047L62.367 10.3746C62.3661 10.1991 62.5081 10.0565 62.6835 10.0565C62.9292 10.0565 63.0812 10.3241 62.9554 10.5351L57.574 19.5638C57.3936 19.8664 57.0673 20.0518 56.715 20.0518H55.3583C55.0105 20.0518 54.6876 19.871 54.5058 19.5744L49.0308 10.6429C48.8735 10.3863 49.0582 10.0565 49.3592 10.0565C49.5719 10.0565 49.7443 10.2289 49.7443 10.4416V21C49.7443 21.5523 49.2966 22 48.7443 22H45.5772Z" fill="#EBEDF2"/>
    <path d="M13.0642 22C11.5459 22 10.1373 21.7619 8.83853 21.2857C7.55802 20.7912 6.44214 20.0952 5.49091 19.1978C4.55796 18.3004 3.82624 17.2472 3.29575 16.0385C2.76525 14.8113 2.5 13.4652 2.5 12C2.5 10.5348 2.76525 9.1978 3.29575 7.98901C3.82624 6.7619 4.55796 5.69963 5.49091 4.8022C6.44214 3.90476 7.55802 3.21795 8.83853 2.74176C10.1373 2.24725 11.5459 2 13.0642 2C14.8386 2 16.421 2.31136 17.8113 2.93407C18.515 3.24517 19.1593 3.62483 19.7443 4.07307C20.7355 4.83253 20.6032 6.2789 19.6777 7.11722C18.6868 8.01487 17.1732 7.84579 16.008 7.18988C15.9419 7.15266 15.8753 7.11684 15.8082 7.08241C15.0764 6.6978 14.2533 6.50549 13.3386 6.50549C12.552 6.50549 11.8294 6.6337 11.1709 6.89011C10.5123 7.14652 9.94526 7.52197 9.46964 8.01648C9.01231 8.49267 8.64645 9.06959 8.37206 9.74725C8.11596 10.4249 7.9879 11.1758 7.9879 12C7.9879 12.8242 8.11596 13.5751 8.37206 14.2527C8.64645 14.9304 9.01231 15.5165 9.46964 16.011C9.94526 16.4872 10.5123 16.8535 11.1709 17.1099C11.8294 17.3663 12.552 17.4945 13.3386 17.4945C14.2533 17.4945 15.0764 17.3022 15.8082 16.9176C15.8779 16.8818 15.9472 16.8445 16.0158 16.8057C17.1757 16.1504 18.6838 15.9824 19.6711 16.8768C20.5983 17.7167 20.7239 19.1657 19.7293 19.9247C19.1483 20.368 18.5089 20.7484 17.8113 21.0659C16.421 21.6886 14.8386 22 13.0642 22Z" fill="#EBEDF2"/>
    <ellipse cx="13.6765" cy="12" rx="2.94117" ry="2.94117" fill="#F9B11F"/>
</svg>
