<svg width="119" height="24" viewBox="0 0 119 24" fill="none" xmlns="http://www.w3.org/2000/svg">
<g clip-path="url(#clip0_14446_7674)">
<path d="M97.2565 2C97.5937 2 97.9062 2.17552 98.0797 2.46239L104.177 12.5437C104.55 13.1602 105.45 13.1602 105.823 12.5437L111.92 2.46239C112.094 2.17552 112.406 2 112.744 2H116.04C116.57 2 117 2.4264 117 2.95238V21.0476C117 21.5736 116.57 22 116.04 22L112.2 22C111.67 22 111.24 21.5736 111.24 21.0476V15.7969C111.24 14.8401 109.977 14.4808 109.466 15.2922L106.722 19.6476C106.547 19.9261 106.239 20.0952 105.908 20.0952H104.092C103.761 20.0952 103.453 19.9261 103.278 19.6476L100.534 15.2922C100.023 14.4808 98.76 14.8401 98.76 15.7969V21.0476C98.76 21.5736 98.3302 22 97.8 22H93.96C93.4298 22 93 21.5736 93 21.0476V2.95238C93 2.4264 93.4298 2 93.96 2H97.2565Z" fill="#313749"/>
<path d="M79 21.0476C79 21.5736 78.5523 22 78 22H74C73.4477 22 73 21.5736 73 21.0476V2.95238C73 2.4264 73.4477 2 74 2H89C89.5523 2 90 2.4264 90 2.95238V5.80952C90 6.33551 89.5523 6.7619 89 6.7619H80C79.4477 6.7619 79 7.1883 79 7.71429V9.61905C79 10.145 79.4477 10.5714 80 10.5714H87C87.5523 10.5714 88 10.9978 88 11.5238V14.381C88 14.9069 87.5523 15.3333 87 15.3333H80C79.4477 15.3333 79 15.7597 79 16.2857V21.0476Z" fill="#313749"/>
<path d="M50.4011 2.66676C50.5271 2.26995 50.8988 2 51.3192 2H55.6808C56.1012 2 56.4729 2.26995 56.5989 2.66676L59.507 11.8212C59.7893 12.7098 61.0599 12.7103 61.3429 11.8218L64.2589 2.66609C64.3851 2.26962 64.7567 2 65.1767 2H69.0369C69.6905 2 70.154 2.63092 69.9524 3.24616L64.0228 21.3414C63.8941 21.7341 63.5245 22 63.1074 22H58.3791C57.9653 22 57.5978 21.7382 57.4665 21.3498L54.4126 12.3181C54.1195 11.4512 52.8805 11.4512 52.5874 12.3181L49.5335 21.3498C49.4022 21.7382 49.0347 22 48.6209 22H43.8926C43.4755 22 43.1059 21.7341 42.9772 21.3414L37.0476 3.24616C36.846 2.63092 37.3095 2 37.9631 2H41.8233C42.2433 2 42.6149 2.26962 42.7411 2.66609L45.6571 11.8218C45.9401 12.7103 47.2107 12.7098 47.493 11.8212L50.4011 2.66676Z" fill="#313749"/>
<path d="M11.9086 16.8715C10.7296 15.7074 10.7296 13.82 11.9086 12.6559L13.3168 11.2654L16.8598 14.7637L13.3168 18.2619L11.9086 16.8715Z" fill="#2AA012"/>
<path d="M2.88054 16.8628C1.70649 15.7036 1.70649 13.8241 2.88054 12.6649L4.29774 11.2656L7.84075 14.7639L4.29774 18.2621L2.88054 16.8628Z" fill="#A07112"/>
<path d="M26.0716 2.86941C24.8975 1.7102 22.994 1.7102 21.82 2.86941L20.4028 4.2687L23.9458 7.76693L27.4888 4.2687L26.0716 2.86941Z" fill="#3CE61A"/>
<path d="M17.0525 2.86941C15.8785 1.7102 13.975 1.7102 12.8009 2.86941L11.3837 4.2687L14.9267 7.76693L18.4697 4.2687L17.0525 2.86941Z" fill="#E6A21A"/>
<path d="M13.3168 11.2656L16.8598 7.76739L20.4028 11.2656L16.8598 14.7639L13.3168 11.2656Z" fill="#30B814"/>
<path d="M4.29773 11.2656L7.84074 7.76739L11.3837 11.2656L7.84074 14.7639L4.29773 11.2656Z" fill="#B88114"/>
<path d="M16.8598 14.7637L20.4028 11.2654L23.9458 14.7637L20.4028 18.2619L16.8598 14.7637Z" fill="#2AA112"/>
<path d="M27.4888 18.2617L31.0318 14.7635L34.5748 18.2617L31.0318 21.7599L27.4888 18.2617Z" fill="#248A0F"/>
<path d="M13.3168 18.2617L16.8598 14.7635L20.4028 18.2617L16.8598 21.7599L13.3168 18.2617Z" fill="#248A0F"/>
<path d="M4.29773 18.2617L7.84074 14.7635L11.3837 18.2617L7.84074 21.7599L4.29773 18.2617Z" fill="#8A610F"/>
<path d="M31.0319 14.7637L34.5749 11.2654L38.1179 14.7637L34.5749 18.2619L31.0319 14.7637Z" fill="#2AA112"/>
<path d="M16.8598 7.76562L20.4028 4.26739L23.9458 7.76562L20.4028 11.2639L16.8598 7.76562Z" fill="#36CF17"/>
<path d="M7.84076 7.76562L11.3838 4.26739L14.9268 7.76562L11.3838 11.2639L7.84076 7.76562Z" fill="#CF9117"/>
<path d="M20.4028 11.2656L23.9458 7.76739L27.4888 11.2656L23.9458 14.7639L20.4028 11.2656Z" fill="#30B814"/>
<path d="M23.9459 7.76562L27.4889 4.26739L31.0319 7.76562L27.4889 11.2639L23.9459 7.76562Z" fill="#36CE17"/>
<path d="M23.9459 14.7637L27.4889 11.2654L31.0319 14.7637L27.4889 18.2619L23.9459 14.7637Z" fill="#2AA112"/>
<path d="M27.4888 11.2656L31.0318 7.76739L34.5748 11.2656L31.0318 14.7639L27.4888 11.2656Z" fill="#30B814"/>
<path d="M20.4028 18.2617L23.9458 14.7635L27.4888 18.2617L23.9458 21.7599L20.4028 18.2617Z" fill="#248A0F"/>
<g filter="url(#filter0_d_14446_7674)">
<path d="M16.8599 21.7591L21.8201 16.8616C22.9941 15.7024 24.8976 15.7024 26.0717 16.8616L31.0319 21.7591H16.8599Z" fill="url(#paint0_linear_14446_7674)"/>
</g>
</g>
<defs>
<filter id="filter0_d_14446_7674" x="14.8599" y="14.9922" width="18.1721" height="9.76758" filterUnits="userSpaceOnUse" color-interpolation-filters="sRGB">
<feFlood flood-opacity="0" result="BackgroundImageFix"/>
<feColorMatrix in="SourceAlpha" type="matrix" values="0 0 0 0 0 0 0 0 0 0 0 0 0 0 0 0 0 0 127 0" result="hardAlpha"/>
<feOffset dy="1"/>
<feGaussianBlur stdDeviation="1"/>
<feComposite in2="hardAlpha" operator="out"/>
<feColorMatrix type="matrix" values="0 0 0 0 0 0 0 0 0 0 0 0 0 0 0 0 0 0 0.25 0"/>
<feBlend mode="normal" in2="BackgroundImageFix" result="effect1_dropShadow_14446_7674"/>
<feBlend mode="normal" in="SourceGraphic" in2="effect1_dropShadow_14446_7674" result="shape"/>
</filter>
<linearGradient id="paint0_linear_14446_7674" x1="23.8034" y1="16.1062" x2="23.8034" y2="22.0429" gradientUnits="userSpaceOnUse">
<stop stop-color="white"/>
<stop offset="1" stop-color="#D0D0D0"/>
</linearGradient>
<clipPath id="clip0_14446_7674">
<rect width="119" height="24" fill="white"/>
</clipPath>
</defs>
</svg>
