<svg width="248" height="160" viewBox="0 0 248 160" fill="none" xmlns="http://www.w3.org/2000/svg">
<path d="M0 8C0 3.58172 3.58172 0 8 0H240C244.418 0 248 3.58172 248 8V152C248 156.418 244.418 160 240 160H8.00001C3.58173 160 0 156.418 0 152V8Z" fill="white" style="fill:white;fill-opacity:1;"/>
<path d="M96 36C96 33.7909 97.7909 32 100 32H108C110.209 32 112 33.7909 112 36V44C112 46.2091 110.209 48 108 48H100C97.7909 48 96 46.2091 96 44V36Z" fill="#F9F9FB" style="fill:#F9F9FB;fill:color(display-p3 0.9760 0.9780 0.9840);fill-opacity:1;"/>
<path d="M136 36C136 33.7909 137.791 32 140 32H148C150.209 32 152 33.7909 152 36V44C152 46.2091 150.209 48 148 48H140C137.791 48 136 46.2091 136 44V36Z" fill="#F9F9FB" style="fill:#F9F9FB;fill:color(display-p3 0.9760 0.9780 0.9840);fill-opacity:1;"/>
<path d="M176 36C176 33.7909 177.791 32 180 32H188C190.209 32 192 33.7909 192 36V44C192 46.2091 190.209 48 188 48H180C177.791 48 176 46.2091 176 44V36Z" fill="#E64C87" style="fill:#E64C87;fill:color(display-p3 0.9000 0.3000 0.5300);fill-opacity:1;"/>
<path d="M216 36C216 33.7909 217.791 32 220 32H228C230.209 32 232 33.7909 232 36V44C232 46.2091 230.209 48 228 48H220C217.791 48 216 46.2091 216 44V36Z" fill="#F9D2D2" style="fill:#F9D2D2;fill:color(display-p3 0.9765 0.8235 0.8235);fill-opacity:1;"/>
<path d="M96 56C96 53.7909 97.7909 52 100 52H108C110.209 52 112 53.7909 112 56V64C112 66.2091 110.209 68 108 68H100C97.7909 68 96 66.2091 96 64V56Z" fill="#F9F9FB" style="fill:#F9F9FB;fill:color(display-p3 0.9760 0.9780 0.9840);fill-opacity:1;"/>
<path d="M136 56C136 53.7909 137.791 52 140 52H148C150.209 52 152 53.7909 152 56V64C152 66.2091 150.209 68 148 68H140C137.791 68 136 66.2091 136 64V56Z" fill="#F9F9FB" style="fill:#F9F9FB;fill:color(display-p3 0.9760 0.9780 0.9840);fill-opacity:1;"/>
<path d="M176 56C176 53.7909 177.791 52 180 52H188C190.209 52 192 53.7909 192 56V64C192 66.2091 190.209 68 188 68H180C177.791 68 176 66.2091 176 64V56Z" fill="#F9F9FB" style="fill:#F9F9FB;fill:color(display-p3 0.9760 0.9780 0.9840);fill-opacity:1;"/>
<path d="M216 56C216 53.7909 217.791 52 220 52H228C230.209 52 232 53.7909 232 56V64C232 66.2091 230.209 68 228 68H220C217.791 68 216 66.2091 216 64V56Z" fill="#F9D2D2" style="fill:#F9D2D2;fill:color(display-p3 0.9765 0.8235 0.8235);fill-opacity:1;"/>
<path d="M96 76C96 73.7909 97.7909 72 100 72H108C110.209 72 112 73.7909 112 76V84C112 86.2091 110.209 88 108 88H100C97.7909 88 96 86.2091 96 84V76Z" fill="#F9F9FB" style="fill:#F9F9FB;fill:color(display-p3 0.9760 0.9780 0.9840);fill-opacity:1;"/>
<path d="M136 76C136 73.7909 137.791 72 140 72H148C150.209 72 152 73.7909 152 76V84C152 86.2091 150.209 88 148 88H140C137.791 88 136 86.2091 136 84V76Z" fill="#F9F9FB" style="fill:#F9F9FB;fill:color(display-p3 0.9760 0.9780 0.9840);fill-opacity:1;"/>
<path d="M176 76C176 73.7909 177.791 72 180 72H188C190.209 72 192 73.7909 192 76V84C192 86.2091 190.209 88 188 88H180C177.791 88 176 86.2091 176 84V76Z" fill="#F9F9FB" style="fill:#F9F9FB;fill:color(display-p3 0.9760 0.9780 0.9840);fill-opacity:1;"/>
<path d="M216 76C216 73.7909 217.791 72 220 72H228C230.209 72 232 73.7909 232 76V84C232 86.2091 230.209 88 228 88H220C217.791 88 216 86.2091 216 84V76Z" fill="#F9D2D2" style="fill:#F9D2D2;fill:color(display-p3 0.9765 0.8235 0.8235);fill-opacity:1;"/>
<path d="M96 96C96 93.7909 97.7909 92 100 92H108C110.209 92 112 93.7909 112 96V104C112 106.209 110.209 108 108 108H100C97.7909 108 96 106.209 96 104V96Z" fill="#F9F9FB" style="fill:#F9F9FB;fill:color(display-p3 0.9760 0.9780 0.9840);fill-opacity:1;"/>
<path d="M136 96C136 93.7909 137.791 92 140 92H148C150.209 92 152 93.7909 152 96V104C152 106.209 150.209 108 148 108H140C137.791 108 136 106.209 136 104V96Z" fill="#F9F9FB" style="fill:#F9F9FB;fill:color(display-p3 0.9760 0.9780 0.9840);fill-opacity:1;"/>
<path d="M176 96C176 93.7909 177.791 92 180 92H188C190.209 92 192 93.7909 192 96V104C192 106.209 190.209 108 188 108H180C177.791 108 176 106.209 176 104V96Z" fill="#F9F9FB" style="fill:#F9F9FB;fill:color(display-p3 0.9760 0.9780 0.9840);fill-opacity:1;"/>
<path d="M216 96C216 93.7909 217.791 92 220 92H228C230.209 92 232 93.7909 232 96V104C232 106.209 230.209 108 228 108H220C217.791 108 216 106.209 216 104V96Z" fill="#F9D2D2" style="fill:#F9D2D2;fill:color(display-p3 0.9765 0.8235 0.8235);fill-opacity:1;"/>
<path d="M96 116C96 113.791 97.7909 112 100 112H108C110.209 112 112 113.791 112 116V124C112 126.209 110.209 128 108 128H100C97.7909 128 96 126.209 96 124V116Z" fill="#F9F9FB" style="fill:#F9F9FB;fill:color(display-p3 0.9760 0.9780 0.9840);fill-opacity:1;"/>
<path d="M96 136C96 133.791 97.7909 132 100 132H108C110.209 132 112 133.791 112 136V144C112 146.209 110.209 148 108 148H100C97.7909 148 96 146.209 96 144V136Z" fill="#F9F9FB" style="fill:#F9F9FB;fill:color(display-p3 0.9760 0.9780 0.9840);fill-opacity:1;"/>
<path d="M136 116C136 113.791 137.791 112 140 112H148C150.209 112 152 113.791 152 116V124C152 126.209 150.209 128 148 128H140C137.791 128 136 126.209 136 124V116Z" fill="#F9F9FB" style="fill:#F9F9FB;fill:color(display-p3 0.9760 0.9780 0.9840);fill-opacity:1;"/>
<path d="M136 136C136 133.791 137.791 132 140 132H148C150.209 132 152 133.791 152 136V144C152 146.209 150.209 148 148 148H140C137.791 148 136 146.209 136 144V136Z" fill="#F9F9FB" style="fill:#F9F9FB;fill:color(display-p3 0.9760 0.9780 0.9840);fill-opacity:1;"/>
<path d="M176 116C176 113.791 177.791 112 180 112H188C190.209 112 192 113.791 192 116V124C192 126.209 190.209 128 188 128H180C177.791 128 176 126.209 176 124V116Z" fill="#F9F9FB" style="fill:#F9F9FB;fill:color(display-p3 0.9760 0.9780 0.9840);fill-opacity:1;"/>
<path d="M176 136C176 133.791 177.791 132 180 132H188C190.209 132 192 133.791 192 136V144C192 146.209 190.209 148 188 148H180C177.791 148 176 146.209 176 144V136Z" fill="#F9F9FB" style="fill:#F9F9FB;fill:color(display-p3 0.9760 0.9780 0.9840);fill-opacity:1;"/>
<path d="M216 116C216 113.791 217.791 112 220 112H228C230.209 112 232 113.791 232 116V124C232 126.209 230.209 128 228 128H220C217.791 128 216 126.209 216 124V116Z" fill="#F9D2D2" style="fill:#F9D2D2;fill:color(display-p3 0.9765 0.8235 0.8235);fill-opacity:1;"/>
<path d="M216 136C216 133.791 217.791 132 220 132H228C230.209 132 232 133.791 232 136V144C232 146.209 230.209 148 228 148H220C217.791 148 216 146.209 216 144V136Z" fill="#F9D2D2" style="fill:#F9D2D2;fill:color(display-p3 0.9765 0.8235 0.8235);fill-opacity:1;"/>
<path d="M46 76C46 73.7909 47.7909 72 50 72H68C70.2091 72 72 73.7909 72 76V84C72 86.2091 70.2091 88 68 88H50C47.7909 88 46 86.2091 46 84V76Z" fill="#24A850" style="fill:#24A850;fill:color(display-p3 0.1400 0.6600 0.3133);fill-opacity:1;"/>
<path d="M16 76C16 73.7909 17.7909 72 20 72H38C40.2091 72 42 73.7909 42 76V84C42 86.2091 40.2091 88 38 88H20C17.7909 88 16 86.2091 16 84V76Z" fill="#F9F9FB" style="fill:#F9F9FB;fill:color(display-p3 0.9760 0.9780 0.9840);fill-opacity:1;"/>
<path d="M16 96C16 93.7909 17.7909 92 20 92H38C40.2091 92 42 93.7909 42 96V104C42 106.209 40.2091 108 38 108H20C17.7909 108 16 106.209 16 104V96Z" fill="#F9F9FB" style="fill:#F9F9FB;fill:color(display-p3 0.9760 0.9780 0.9840);fill-opacity:1;"/>
<path d="M16 116C16 113.791 17.7909 112 20 112H38C40.2091 112 42 113.791 42 116V124C42 126.209 40.2091 128 38 128H20C17.7909 128 16 126.209 16 124V116Z" fill="#F9F9FB" style="fill:#F9F9FB;fill:color(display-p3 0.9760 0.9780 0.9840);fill-opacity:1;"/>
<path d="M46 116C46 113.791 47.7909 112 50 112H68C70.2091 112 72 113.791 72 116V124C72 126.209 70.2091 128 68 128H50C47.7909 128 46 126.209 46 124V116Z" fill="#F9F9FB" style="fill:#F9F9FB;fill:color(display-p3 0.9760 0.9780 0.9840);fill-opacity:1;"/>
<path d="M16 136C16 133.791 17.7909 132 20 132H38C40.2091 132 42 133.791 42 136V144C42 146.209 40.2091 148 38 148H20C17.7909 148 16 146.209 16 144V136Z" fill="#F9F9FB" style="fill:#F9F9FB;fill:color(display-p3 0.9760 0.9780 0.9840);fill-opacity:1;"/>
<path d="M46 136C46 133.791 47.7909 132 50 132H68C70.2091 132 72 133.791 72 136V144C72 146.209 70.2091 148 68 148H50C47.7909 148 46 146.209 46 144V136Z" fill="#F9F9FB" style="fill:#F9F9FB;fill:color(display-p3 0.9760 0.9780 0.9840);fill-opacity:1;"/>
<path d="M46 96C46 93.7909 47.7909 92 50 92H68C70.2091 92 72 93.7909 72 96V104C72 106.209 70.2091 108 68 108H50C47.7909 108 46 106.209 46 104V96Z" fill="#E28136" style="fill:#E28136;fill:color(display-p3 0.8875 0.5050 0.2125);fill-opacity:1;"/>
<path d="M76 36C76 33.7909 77.7909 32 80 32H88C90.2091 32 92 33.7909 92 36V44C92 46.2091 90.2091 48 88 48H80C77.7909 48 76 46.2091 76 44V36Z" fill="#F9F9FB" style="fill:#F9F9FB;fill:color(display-p3 0.9760 0.9780 0.9840);fill-opacity:1;"/>
<path d="M76 16C76 13.7909 77.7909 12 80 12H228C230.209 12 232 13.7909 232 16V24C232 26.2091 230.209 28 228 28H80C77.7909 28 76 26.2091 76 24V16Z" fill="#F9F9FB" style="fill:#F9F9FB;fill:color(display-p3 0.9760 0.9780 0.9840);fill-opacity:1;"/>
<path d="M116 36C116 33.7909 117.791 32 120 32H128C130.209 32 132 33.7909 132 36V44C132 46.2091 130.209 48 128 48H120C117.791 48 116 46.2091 116 44V36Z" fill="#F9F9FB" style="fill:#F9F9FB;fill:color(display-p3 0.9760 0.9780 0.9840);fill-opacity:1;"/>
<path d="M156 36C156 33.7909 157.791 32 160 32H168C170.209 32 172 33.7909 172 36V44C172 46.2091 170.209 48 168 48H160C157.791 48 156 46.2091 156 44V36Z" fill="#F9F9FB" style="fill:#F9F9FB;fill:color(display-p3 0.9760 0.9780 0.9840);fill-opacity:1;"/>
<path d="M196 36C196 33.7909 197.791 32 200 32H208C210.209 32 212 33.7909 212 36V44C212 46.2091 210.209 48 208 48H200C197.791 48 196 46.2091 196 44V36Z" fill="#F9D2D2" style="fill:#F9D2D2;fill:color(display-p3 0.9765 0.8235 0.8235);fill-opacity:1;"/>
<path d="M76 56C76 53.7909 77.7909 52 80 52H88C90.2091 52 92 53.7909 92 56V64C92 66.2091 90.2091 68 88 68H80C77.7909 68 76 66.2091 76 64V56Z" fill="#F9F9FB" style="fill:#F9F9FB;fill:color(display-p3 0.9760 0.9780 0.9840);fill-opacity:1;"/>
<path d="M116 56C116 53.7909 117.791 52 120 52H128C130.209 52 132 53.7909 132 56V64C132 66.2091 130.209 68 128 68H120C117.791 68 116 66.2091 116 64V56Z" fill="#F9F9FB" style="fill:#F9F9FB;fill:color(display-p3 0.9760 0.9780 0.9840);fill-opacity:1;"/>
<path d="M156 56C156 53.7909 157.791 52 160 52H168C170.209 52 172 53.7909 172 56V64C172 66.2091 170.209 68 168 68H160C157.791 68 156 66.2091 156 64V56Z" fill="#F9F9FB" style="fill:#F9F9FB;fill:color(display-p3 0.9760 0.9780 0.9840);fill-opacity:1;"/>
<path d="M196 56C196 53.7909 197.791 52 200 52H208C210.209 52 212 53.7909 212 56V64C212 66.2091 210.209 68 208 68H200C197.791 68 196 66.2091 196 64V56Z" fill="#F9D2D2" style="fill:#F9D2D2;fill:color(display-p3 0.9765 0.8235 0.8235);fill-opacity:1;"/>
<path d="M76 76C76 73.7909 77.7909 72 80 72H88C90.2091 72 92 73.7909 92 76V84C92 86.2091 90.2091 88 88 88H80C77.7909 88 76 86.2091 76 84V76Z" fill="#F9F9FB" style="fill:#F9F9FB;fill:color(display-p3 0.9760 0.9780 0.9840);fill-opacity:1;"/>
<path d="M116 76C116 73.7909 117.791 72 120 72H128C130.209 72 132 73.7909 132 76V84C132 86.2091 130.209 88 128 88H120C117.791 88 116 86.2091 116 84V76Z" fill="#F9F9FB" style="fill:#F9F9FB;fill:color(display-p3 0.9760 0.9780 0.9840);fill-opacity:1;"/>
<path d="M156 76C156 73.7909 157.791 72 160 72H168C170.209 72 172 73.7909 172 76V84C172 86.2091 170.209 88 168 88H160C157.791 88 156 86.2091 156 84V76Z" fill="#F9F9FB" style="fill:#F9F9FB;fill:color(display-p3 0.9760 0.9780 0.9840);fill-opacity:1;"/>
<path d="M196 76C196 73.7909 197.791 72 200 72H208C210.209 72 212 73.7909 212 76V84C212 86.2091 210.209 88 208 88H200C197.791 88 196 86.2091 196 84V76Z" fill="#F9D2D2" style="fill:#F9D2D2;fill:color(display-p3 0.9765 0.8235 0.8235);fill-opacity:1;"/>
<path d="M76 96C76 93.7909 77.7909 92 80 92H88C90.2091 92 92 93.7909 92 96V104C92 106.209 90.2091 108 88 108H80C77.7909 108 76 106.209 76 104V96Z" fill="#F9F9FB" style="fill:#F9F9FB;fill:color(display-p3 0.9760 0.9780 0.9840);fill-opacity:1;"/>
<path d="M116 96C116 93.7909 117.791 92 120 92H128C130.209 92 132 93.7909 132 96V104C132 106.209 130.209 108 128 108H120C117.791 108 116 106.209 116 104V96Z" fill="#F9F9FB" style="fill:#F9F9FB;fill:color(display-p3 0.9760 0.9780 0.9840);fill-opacity:1;"/>
<path d="M156 96C156 93.7909 157.791 92 160 92H168C170.209 92 172 93.7909 172 96V104C172 106.209 170.209 108 168 108H160C157.791 108 156 106.209 156 104V96Z" fill="#F9F9FB" style="fill:#F9F9FB;fill:color(display-p3 0.9760 0.9780 0.9840);fill-opacity:1;"/>
<path d="M196 96C196 93.7909 197.791 92 200 92H208C210.209 92 212 93.7909 212 96V104C212 106.209 210.209 108 208 108H200C197.791 108 196 106.209 196 104V96Z" fill="#F9D2D2" style="fill:#F9D2D2;fill:color(display-p3 0.9765 0.8235 0.8235);fill-opacity:1;"/>
<path d="M76 116C76 113.791 77.7909 112 80 112H88C90.2091 112 92 113.791 92 116V124C92 126.209 90.2091 128 88 128H80C77.7909 128 76 126.209 76 124V116Z" fill="#F9F9FB" style="fill:#F9F9FB;fill:color(display-p3 0.9760 0.9780 0.9840);fill-opacity:1;"/>
<path d="M76 136C76 133.791 77.7909 132 80 132H88C90.2091 132 92 133.791 92 136V144C92 146.209 90.2091 148 88 148H80C77.7909 148 76 146.209 76 144V136Z" fill="#F9F9FB" style="fill:#F9F9FB;fill:color(display-p3 0.9760 0.9780 0.9840);fill-opacity:1;"/>
<path d="M116 116C116 113.791 117.791 112 120 112H128C130.209 112 132 113.791 132 116V124C132 126.209 130.209 128 128 128H120C117.791 128 116 126.209 116 124V116Z" fill="#F9F9FB" style="fill:#F9F9FB;fill:color(display-p3 0.9760 0.9780 0.9840);fill-opacity:1;"/>
<path d="M116 136C116 133.791 117.791 132 120 132H128C130.209 132 132 133.791 132 136V144C132 146.209 130.209 148 128 148H120C117.791 148 116 146.209 116 144V136Z" fill="#F9F9FB" style="fill:#F9F9FB;fill:color(display-p3 0.9760 0.9780 0.9840);fill-opacity:1;"/>
<path d="M156 116C156 113.791 157.791 112 160 112H168C170.209 112 172 113.791 172 116V124C172 126.209 170.209 128 168 128H160C157.791 128 156 126.209 156 124V116Z" fill="#F9F9FB" style="fill:#F9F9FB;fill:color(display-p3 0.9760 0.9780 0.9840);fill-opacity:1;"/>
<path d="M156 136C156 133.791 157.791 132 160 132H168C170.209 132 172 133.791 172 136V144C172 146.209 170.209 148 168 148H160C157.791 148 156 146.209 156 144V136Z" fill="#F9F9FB" style="fill:#F9F9FB;fill:color(display-p3 0.9760 0.9780 0.9840);fill-opacity:1;"/>
<path d="M196 116C196 113.791 197.791 112 200 112H208C210.209 112 212 113.791 212 116V124C212 126.209 210.209 128 208 128H200C197.791 128 196 126.209 196 124V116Z" fill="#F9D2D2" style="fill:#F9D2D2;fill:color(display-p3 0.9765 0.8235 0.8235);fill-opacity:1;"/>
<path d="M196 136C196 133.791 197.791 132 200 132H208C210.209 132 212 133.791 212 136V144C212 146.209 210.209 148 208 148H200C197.791 148 196 146.209 196 144V136Z" fill="#F9D2D2" style="fill:#F9D2D2;fill:color(display-p3 0.9765 0.8235 0.8235);fill-opacity:1;"/>
<rect x="16" y="12" width="48" height="48" rx="24" fill="#4C9CE6" style="fill:#4C9CE6;fill:color(display-p3 0.3000 0.6100 0.9000);fill-opacity:1;"/>
</svg>
