<svg width="248" height="160" viewBox="0 0 248 160" fill="none" xmlns="http://www.w3.org/2000/svg">
<path d="M0 8C0 3.58172 3.58172 0 8 0H240C244.418 0 248 3.58172 248 8V152C248 156.418 244.418 160 240 160H8.00001C3.58173 160 0 156.418 0 152V8Z" fill="white" style="fill:white;fill-opacity:1;"/>
<path d="M16 52C16 49.7909 17.7909 48 20 48H28C30.2091 48 32 49.7909 32 52V60C32 62.2091 30.2091 64 28 64H20C17.7909 64 16 62.2091 16 60V52Z" fill="#24A850" style="fill:#24A850;fill:color(display-p3 0.1400 0.6600 0.3133);fill-opacity:1;"/>
<path d="M16 32C16 29.7909 17.7909 28 20 28H28C30.2091 28 32 29.7909 32 32V40C32 42.2091 30.2091 44 28 44H20C17.7909 44 16 42.2091 16 40V32Z" fill="#E54F4C" style="fill:#E54F4C;fill:color(display-p3 0.8980 0.3098 0.2980);fill-opacity:1;"/>
<path d="M96 32C96 29.7909 97.7909 28 100 28H108C110.209 28 112 29.7909 112 32V40C112 42.2091 110.209 44 108 44H100C97.7909 44 96 42.2091 96 40V32Z" fill="#E54F4C" style="fill:#E54F4C;fill:color(display-p3 0.8980 0.3098 0.2980);fill-opacity:1;"/>
<path d="M176 32C176 29.7909 177.791 28 180 28H188C190.209 28 192 29.7909 192 32V40C192 42.2091 190.209 44 188 44H180C177.791 44 176 42.2091 176 40V32Z" fill="#E54F4C" style="fill:#E54F4C;fill:color(display-p3 0.8980 0.3098 0.2980);fill-opacity:1;"/>
<path d="M16 72C16 69.7909 17.7909 68 20 68H28C30.2091 68 32 69.7909 32 72V80C32 82.2091 30.2091 84 28 84H20C17.7909 84 16 82.2091 16 80V72Z" fill="#24A850" style="fill:#24A850;fill:color(display-p3 0.1400 0.6600 0.3133);fill-opacity:1;"/>
<path d="M16 92C16 89.7909 17.7909 88 20 88H28C30.2091 88 32 89.7909 32 92V100C32 102.209 30.2091 104 28 104H20C17.7909 104 16 102.209 16 100V92Z" fill="#24A850" style="fill:#24A850;fill:color(display-p3 0.1400 0.6600 0.3133);fill-opacity:1;"/>
<path d="M16 112C16 109.791 17.7909 108 20 108H28C30.2091 108 32 109.791 32 112V120C32 122.209 30.2091 124 28 124H20C17.7909 124 16 122.209 16 120V112Z" fill="#24A850" style="fill:#24A850;fill:color(display-p3 0.1400 0.6600 0.3133);fill-opacity:1;"/>
<path d="M16 132C16 129.791 17.7909 128 20 128H28C30.2091 128 32 129.791 32 132V140C32 142.209 30.2091 144 28 144H20C17.7909 144 16 142.209 16 140V132Z" fill="#24A850" style="fill:#24A850;fill:color(display-p3 0.1400 0.6600 0.3133);fill-opacity:1;"/>
<path d="M96 52C96 49.7909 97.7909 48 100 48H108C110.209 48 112 49.7909 112 52V60C112 62.2091 110.209 64 108 64H100C97.7909 64 96 62.2091 96 60V52Z" fill="#F9F9FB" style="fill:#F9F9FB;fill:color(display-p3 0.9760 0.9780 0.9840);fill-opacity:1;"/>
<path d="M96 72C96 69.7909 97.7909 68 100 68H108C110.209 68 112 69.7909 112 72V80C112 82.2091 110.209 84 108 84H100C97.7909 84 96 82.2091 96 80V72Z" fill="#F9F9FB" style="fill:#F9F9FB;fill:color(display-p3 0.9760 0.9780 0.9840);fill-opacity:1;"/>
<path d="M96 92C96 89.7909 97.7909 88 100 88H108C110.209 88 112 89.7909 112 92V100C112 102.209 110.209 104 108 104H100C97.7909 104 96 102.209 96 100V92Z" fill="#F9F9FB" style="fill:#F9F9FB;fill:color(display-p3 0.9760 0.9780 0.9840);fill-opacity:1;"/>
<path d="M96 112C96 109.791 97.7909 108 100 108H108C110.209 108 112 109.791 112 112V120C112 122.209 110.209 124 108 124H100C97.7909 124 96 122.209 96 120V112Z" fill="#F9F9FB" style="fill:#F9F9FB;fill:color(display-p3 0.9760 0.9780 0.9840);fill-opacity:1;"/>
<path d="M96 132C96 129.791 97.7909 128 100 128H108C110.209 128 112 129.791 112 132V140C112 142.209 110.209 144 108 144H100C97.7909 144 96 142.209 96 140V132Z" fill="#F9F9FB" style="fill:#F9F9FB;fill:color(display-p3 0.9760 0.9780 0.9840);fill-opacity:1;"/>
<path d="M176 52C176 49.7909 177.791 48 180 48H188C190.209 48 192 49.7909 192 52V60C192 62.2091 190.209 64 188 64H180C177.791 64 176 62.2091 176 60V52Z" fill="#F9D2D2" style="fill:#F9D2D2;fill:color(display-p3 0.9765 0.8235 0.8235);fill-opacity:1;"/>
<path d="M176 72C176 69.7909 177.791 68 180 68H188C190.209 68 192 69.7909 192 72V80C192 82.2091 190.209 84 188 84H180C177.791 84 176 82.2091 176 80V72Z" fill="#F9D2D2" style="fill:#F9D2D2;fill:color(display-p3 0.9765 0.8235 0.8235);fill-opacity:1;"/>
<path d="M176 92C176 89.7909 177.791 88 180 88H188C190.209 88 192 89.7909 192 92V100C192 102.209 190.209 104 188 104H180C177.791 104 176 102.209 176 100V92Z" fill="#F9D2D2" style="fill:#F9D2D2;fill:color(display-p3 0.9765 0.8235 0.8235);fill-opacity:1;"/>
<path d="M176 112C176 109.791 177.791 108 180 108H188C190.209 108 192 109.791 192 112V120C192 122.209 190.209 124 188 124H180C177.791 124 176 122.209 176 120V112Z" fill="#F9D2D2" style="fill:#F9D2D2;fill:color(display-p3 0.9765 0.8235 0.8235);fill-opacity:1;"/>
<path d="M176 132C176 129.791 177.791 128 180 128H188C190.209 128 192 129.791 192 132V140C192 142.209 190.209 144 188 144H180C177.791 144 176 142.209 176 140V132Z" fill="#F9D2D2" style="fill:#F9D2D2;fill:color(display-p3 0.9765 0.8235 0.8235);fill-opacity:1;"/>
<path d="M56 52C56 49.7909 57.7909 48 60 48H68C70.2091 48 72 49.7909 72 52V60C72 62.2091 70.2091 64 68 64H60C57.7909 64 56 62.2091 56 60V52Z" fill="#F9F9FB" style="fill:#F9F9FB;fill:color(display-p3 0.9760 0.9780 0.9840);fill-opacity:1;"/>
<path d="M56 72C56 69.7909 57.7909 68 60 68H68C70.2091 68 72 69.7909 72 72V80C72 82.2091 70.2091 84 68 84H60C57.7909 84 56 82.2091 56 80V72Z" fill="#F9F9FB" style="fill:#F9F9FB;fill:color(display-p3 0.9760 0.9780 0.9840);fill-opacity:1;"/>
<path d="M56 92C56 89.7909 57.7909 88 60 88H68C70.2091 88 72 89.7909 72 92V100C72 102.209 70.2091 104 68 104H60C57.7909 104 56 102.209 56 100V92Z" fill="#F9F9FB" style="fill:#F9F9FB;fill:color(display-p3 0.9760 0.9780 0.9840);fill-opacity:1;"/>
<path d="M56 112C56 109.791 57.7909 108 60 108H68C70.2091 108 72 109.791 72 112V120C72 122.209 70.2091 124 68 124H60C57.7909 124 56 122.209 56 120V112Z" fill="#F9F9FB" style="fill:#F9F9FB;fill:color(display-p3 0.9760 0.9780 0.9840);fill-opacity:1;"/>
<path d="M56 132C56 129.791 57.7909 128 60 128H68C70.2091 128 72 129.791 72 132V140C72 142.209 70.2091 144 68 144H60C57.7909 144 56 142.209 56 140V132Z" fill="#E64C87" style="fill:#E64C87;fill:color(display-p3 0.9000 0.3000 0.5300);fill-opacity:1;"/>
<path d="M136 52C136 49.7909 137.791 48 140 48H148C150.209 48 152 49.7909 152 52V60C152 62.2091 150.209 64 148 64H140C137.791 64 136 62.2091 136 60V52Z" fill="#0AA9C2" style="fill:#0AA9C2;fill:color(display-p3 0.0400 0.6640 0.7600);fill-opacity:1;"/>
<path d="M136 72C136 69.7909 137.791 68 140 68H148C150.209 68 152 69.7909 152 72V80C152 82.2091 150.209 84 148 84H140C137.791 84 136 82.2091 136 80V72Z" fill="#F9F9FB" style="fill:#F9F9FB;fill:color(display-p3 0.9760 0.9780 0.9840);fill-opacity:1;"/>
<path d="M136 92C136 89.7909 137.791 88 140 88H148C150.209 88 152 89.7909 152 92V100C152 102.209 150.209 104 148 104H140C137.791 104 136 102.209 136 100V92Z" fill="#F9F9FB" style="fill:#F9F9FB;fill:color(display-p3 0.9760 0.9780 0.9840);fill-opacity:1;"/>
<path d="M136 112C136 109.791 137.791 108 140 108H148C150.209 108 152 109.791 152 112V120C152 122.209 150.209 124 148 124H140C137.791 124 136 122.209 136 120V112Z" fill="#F9F9FB" style="fill:#F9F9FB;fill:color(display-p3 0.9760 0.9780 0.9840);fill-opacity:1;"/>
<path d="M136 132C136 129.791 137.791 128 140 128H148C150.209 128 152 129.791 152 132V140C152 142.209 150.209 144 148 144H140C137.791 144 136 142.209 136 140V132Z" fill="#F9F9FB" style="fill:#F9F9FB;fill:color(display-p3 0.9760 0.9780 0.9840);fill-opacity:1;"/>
<path d="M216 52C216 49.7909 217.791 48 220 48H228C230.209 48 232 49.7909 232 52V60C232 62.2091 230.209 64 228 64H220C217.791 64 216 62.2091 216 60V52Z" fill="#0AA9C2" style="fill:#0AA9C2;fill:color(display-p3 0.0400 0.6640 0.7600);fill-opacity:1;"/>
<path d="M216 72C216 69.7909 217.791 68 220 68H228C230.209 68 232 69.7909 232 72V80C232 82.2091 230.209 84 228 84H220C217.791 84 216 82.2091 216 80V72Z" fill="#F9F9FB" style="fill:#F9F9FB;fill:color(display-p3 0.9760 0.9780 0.9840);fill-opacity:1;"/>
<path d="M216 92C216 89.7909 217.791 88 220 88H228C230.209 88 232 89.7909 232 92V100C232 102.209 230.209 104 228 104H220C217.791 104 216 102.209 216 100V92Z" fill="#E64C87" style="fill:#E64C87;fill:color(display-p3 0.9000 0.3000 0.5300);fill-opacity:1;"/>
<path d="M216 112C216 109.791 217.791 108 220 108H228C230.209 108 232 109.791 232 112V120C232 122.209 230.209 124 228 124H220C217.791 124 216 122.209 216 120V112Z" fill="#F9F9FB" style="fill:#F9F9FB;fill:color(display-p3 0.9760 0.9780 0.9840);fill-opacity:1;"/>
<path d="M216 132C216 129.791 217.791 128 220 128H228C230.209 128 232 129.791 232 132V140C232 142.209 230.209 144 228 144H220C217.791 144 216 142.209 216 140V132Z" fill="#F9F9FB" style="fill:#F9F9FB;fill:color(display-p3 0.9760 0.9780 0.9840);fill-opacity:1;"/>
<path d="M36 52C36 49.7909 37.7909 48 40 48H48C50.2091 48 52 49.7909 52 52V60C52 62.2091 50.2091 64 48 64H40C37.7909 64 36 62.2091 36 60V52Z" fill="#24A850" style="fill:#24A850;fill:color(display-p3 0.1400 0.6600 0.3133);fill-opacity:1;"/>
<path d="M36 24C36 21.7909 37.7909 20 40 20H48C50.2091 20 52 21.7909 52 24V40C52 42.2091 50.2091 44 48 44H40C37.7909 44 36 42.2091 36 40V24Z" fill="#E28136" style="fill:#E28136;fill:color(display-p3 0.8875 0.5050 0.2125);fill-opacity:1;"/>
<path d="M116 24C116 21.7909 117.791 20 120 20H128C130.209 20 132 21.7909 132 24V40C132 42.2091 130.209 44 128 44H120C117.791 44 116 42.2091 116 40V24Z" fill="#E28136" style="fill:#E28136;fill:color(display-p3 0.8875 0.5050 0.2125);fill-opacity:1;"/>
<path d="M196 24C196 21.7909 197.791 20 200 20H208C210.209 20 212 21.7909 212 24V40C212 42.2091 210.209 44 208 44H200C197.791 44 196 42.2091 196 40V24Z" fill="#E28136" style="fill:#E28136;fill:color(display-p3 0.8875 0.5050 0.2125);fill-opacity:1;"/>
<path d="M76 24C76 21.7909 77.7909 20 80 20H88C90.2091 20 92 21.7909 92 24V40C92 42.2091 90.2091 44 88 44H80C77.7909 44 76 42.2091 76 40V24Z" fill="#E0E3EB" style="fill:#E0E3EB;fill:color(display-p3 0.8800 0.8900 0.9200);fill-opacity:1;"/>
<path d="M156 24C156 21.7909 157.791 20 160 20H168C170.209 20 172 21.7909 172 24V40C172 42.2091 170.209 44 168 44H160C157.791 44 156 42.2091 156 40V24Z" fill="#E0E3EB" style="fill:#E0E3EB;fill:color(display-p3 0.8800 0.8900 0.9200);fill-opacity:1;"/>
<path d="M56 20C56 17.7909 57.7909 16 60 16H68C70.2091 16 72 17.7909 72 20V40C72 42.2091 70.2091 44 68 44H60C57.7909 44 56 42.2091 56 40V20Z" fill="#24A850" style="fill:#24A850;fill:color(display-p3 0.1400 0.6600 0.3133);fill-opacity:1;"/>
<path d="M136 20C136 17.7909 137.791 16 140 16H148C150.209 16 152 17.7909 152 20V40C152 42.2091 150.209 44 148 44H140C137.791 44 136 42.2091 136 40V20Z" fill="#24A850" style="fill:#24A850;fill:color(display-p3 0.1400 0.6600 0.3133);fill-opacity:1;"/>
<path d="M216 20C216 17.7909 217.791 16 220 16H228C230.209 16 232 17.7909 232 20V40C232 42.2091 230.209 44 228 44H220C217.791 44 216 42.2091 216 40V20Z" fill="#24A850" style="fill:#24A850;fill:color(display-p3 0.1400 0.6600 0.3133);fill-opacity:1;"/>
<path d="M36 72C36 69.7909 37.7909 68 40 68H48C50.2091 68 52 69.7909 52 72V80C52 82.2091 50.2091 84 48 84H40C37.7909 84 36 82.2091 36 80V72Z" fill="#24A850" style="fill:#24A850;fill:color(display-p3 0.1400 0.6600 0.3133);fill-opacity:1;"/>
<path d="M36 92C36 89.7909 37.7909 88 40 88H48C50.2091 88 52 89.7909 52 92V100C52 102.209 50.2091 104 48 104H40C37.7909 104 36 102.209 36 100V92Z" fill="#24A850" style="fill:#24A850;fill:color(display-p3 0.1400 0.6600 0.3133);fill-opacity:1;"/>
<path d="M36 112C36 109.791 37.7909 108 40 108H48C50.2091 108 52 109.791 52 112V120C52 122.209 50.2091 124 48 124H40C37.7909 124 36 122.209 36 120V112Z" fill="#24A850" style="fill:#24A850;fill:color(display-p3 0.1400 0.6600 0.3133);fill-opacity:1;"/>
<path d="M36 132C36 129.791 37.7909 128 40 128H48C50.2091 128 52 129.791 52 132V140C52 142.209 50.2091 144 48 144H40C37.7909 144 36 142.209 36 140V132Z" fill="#24A850" style="fill:#24A850;fill:color(display-p3 0.1400 0.6600 0.3133);fill-opacity:1;"/>
<path d="M116 52C116 49.7909 117.791 48 120 48H128C130.209 48 132 49.7909 132 52V60C132 62.2091 130.209 64 128 64H120C117.791 64 116 62.2091 116 60V52Z" fill="#F9F9FB" style="fill:#F9F9FB;fill:color(display-p3 0.9760 0.9780 0.9840);fill-opacity:1;"/>
<path d="M116 72C116 69.7909 117.791 68 120 68H128C130.209 68 132 69.7909 132 72V80C132 82.2091 130.209 84 128 84H120C117.791 84 116 82.2091 116 80V72Z" fill="#F9F9FB" style="fill:#F9F9FB;fill:color(display-p3 0.9760 0.9780 0.9840);fill-opacity:1;"/>
<path d="M116 92C116 89.7909 117.791 88 120 88H128C130.209 88 132 89.7909 132 92V100C132 102.209 130.209 104 128 104H120C117.791 104 116 102.209 116 100V92Z" fill="#E64C87" style="fill:#E64C87;fill:color(display-p3 0.9000 0.3000 0.5300);fill-opacity:1;"/>
<path d="M116 112C116 109.791 117.791 108 120 108H128C130.209 108 132 109.791 132 112V120C132 122.209 130.209 124 128 124H120C117.791 124 116 122.209 116 120V112Z" fill="#F9F9FB" style="fill:#F9F9FB;fill:color(display-p3 0.9760 0.9780 0.9840);fill-opacity:1;"/>
<path d="M116 132C116 129.791 117.791 128 120 128H128C130.209 128 132 129.791 132 132V140C132 142.209 130.209 144 128 144H120C117.791 144 116 142.209 116 140V132Z" fill="#F9F9FB" style="fill:#F9F9FB;fill:color(display-p3 0.9760 0.9780 0.9840);fill-opacity:1;"/>
<path d="M196 52C196 49.7909 197.791 48 200 48H208C210.209 48 212 49.7909 212 52V60C212 62.2091 210.209 64 208 64H200C197.791 64 196 62.2091 196 60V52Z" fill="#F9D2D2" style="fill:#F9D2D2;fill:color(display-p3 0.9765 0.8235 0.8235);fill-opacity:1;"/>
<path d="M196 72C196 69.7909 197.791 68 200 68H208C210.209 68 212 69.7909 212 72V80C212 82.2091 210.209 84 208 84H200C197.791 84 196 82.2091 196 80V72Z" fill="#F9D2D2" style="fill:#F9D2D2;fill:color(display-p3 0.9765 0.8235 0.8235);fill-opacity:1;"/>
<path d="M196 92C196 89.7909 197.791 88 200 88H208C210.209 88 212 89.7909 212 92V100C212 102.209 210.209 104 208 104H200C197.791 104 196 102.209 196 100V92Z" fill="#F9D2D2" style="fill:#F9D2D2;fill:color(display-p3 0.9765 0.8235 0.8235);fill-opacity:1;"/>
<path d="M196 112C196 109.791 197.791 108 200 108H208C210.209 108 212 109.791 212 112V120C212 122.209 210.209 124 208 124H200C197.791 124 196 122.209 196 120V112Z" fill="#F9D2D2" style="fill:#F9D2D2;fill:color(display-p3 0.9765 0.8235 0.8235);fill-opacity:1;"/>
<path d="M196 132C196 129.791 197.791 128 200 128H208C210.209 128 212 129.791 212 132V140C212 142.209 210.209 144 208 144H200C197.791 144 196 142.209 196 140V132Z" fill="#F9D2D2" style="fill:#F9D2D2;fill:color(display-p3 0.9765 0.8235 0.8235);fill-opacity:1;"/>
<path d="M76 52C76 49.7909 77.7909 48 80 48H88C90.2091 48 92 49.7909 92 52V60C92 62.2091 90.2091 64 88 64H80C77.7909 64 76 62.2091 76 60V52Z" fill="#F9F9FB" style="fill:#F9F9FB;fill:color(display-p3 0.9760 0.9780 0.9840);fill-opacity:1;"/>
<path d="M76 72C76 69.7909 77.7909 68 80 68H88C90.2091 68 92 69.7909 92 72V80C92 82.2091 90.2091 84 88 84H80C77.7909 84 76 82.2091 76 80V72Z" fill="#F9F9FB" style="fill:#F9F9FB;fill:color(display-p3 0.9760 0.9780 0.9840);fill-opacity:1;"/>
<path d="M76 92C76 89.7909 77.7909 88 80 88H88C90.2091 88 92 89.7909 92 92V100C92 102.209 90.2091 104 88 104H80C77.7909 104 76 102.209 76 100V92Z" fill="#F9F9FB" style="fill:#F9F9FB;fill:color(display-p3 0.9760 0.9780 0.9840);fill-opacity:1;"/>
<path d="M76 112C76 109.791 77.7909 108 80 108H88C90.2091 108 92 109.791 92 112V120C92 122.209 90.2091 124 88 124H80C77.7909 124 76 122.209 76 120V112Z" fill="#F9F9FB" style="fill:#F9F9FB;fill:color(display-p3 0.9760 0.9780 0.9840);fill-opacity:1;"/>
<path d="M76 132C76 129.791 77.7909 128 80 128H88C90.2091 128 92 129.791 92 132V140C92 142.209 90.2091 144 88 144H80C77.7909 144 76 142.209 76 140V132Z" fill="#F9F9FB" style="fill:#F9F9FB;fill:color(display-p3 0.9760 0.9780 0.9840);fill-opacity:1;"/>
<path d="M156 52C156 49.7909 157.791 48 160 48H168C170.209 48 172 49.7909 172 52V60C172 62.2091 170.209 64 168 64H160C157.791 64 156 62.2091 156 60V52Z" fill="#0AA9C2" style="fill:#0AA9C2;fill:color(display-p3 0.0400 0.6640 0.7600);fill-opacity:1;"/>
<path d="M156 72C156 69.7909 157.791 68 160 68H168C170.209 68 172 69.7909 172 72V80C172 82.2091 170.209 84 168 84H160C157.791 84 156 82.2091 156 80V72Z" fill="#E28136" style="fill:#E28136;fill:color(display-p3 0.8875 0.5050 0.2125);fill-opacity:1;"/>
<path d="M156 92C156 89.7909 157.791 88 160 88H168C170.209 88 172 89.7909 172 92V100C172 102.209 170.209 104 168 104H160C157.791 104 156 102.209 156 100V92Z" fill="#F9F9FB" style="fill:#F9F9FB;fill:color(display-p3 0.9760 0.9780 0.9840);fill-opacity:1;"/>
<path d="M156 112C156 109.791 157.791 108 160 108H168C170.209 108 172 109.791 172 112V120C172 122.209 170.209 124 168 124H160C157.791 124 156 122.209 156 120V112Z" fill="#F9F9FB" style="fill:#F9F9FB;fill:color(display-p3 0.9760 0.9780 0.9840);fill-opacity:1;"/>
<path d="M156 132C156 129.791 157.791 128 160 128H168C170.209 128 172 129.791 172 132V140C172 142.209 170.209 144 168 144H160C157.791 144 156 142.209 156 140V132Z" fill="#F9F9FB" style="fill:#F9F9FB;fill:color(display-p3 0.9760 0.9780 0.9840);fill-opacity:1;"/>
</svg>
